<?xml version="1.0" encoding="utf-8" standalone="no"?>
<!DOCTYPE svg PUBLIC "-//W3C//DTD SVG 1.1//EN"
  "http://www.w3.org/Graphics/SVG/1.1/DTD/svg11.dtd">
<svg xmlns:xlink="http://www.w3.org/1999/xlink" width="460.8pt" height="345.6pt" viewBox="0 0 460.8 345.6" xmlns="http://www.w3.org/2000/svg" version="1.1">
 <metadata>
  <rdf:RDF xmlns:dc="http://purl.org/dc/elements/1.1/" xmlns:cc="http://creativecommons.org/ns#" xmlns:rdf="http://www.w3.org/1999/02/22-rdf-syntax-ns#">
   <cc:Work>
    <dc:type rdf:resource="http://purl.org/dc/dcmitype/StillImage"/>
    <dc:date>2022-12-31T13:39:40.493341</dc:date>
    <dc:format>image/svg+xml</dc:format>
    <dc:creator>
     <cc:Agent>
      <dc:title>Matplotlib v3.6.2, https://matplotlib.org/</dc:title>
     </cc:Agent>
    </dc:creator>
   </cc:Work>
  </rdf:RDF>
 </metadata>
 <defs>
  <style type="text/css">*{stroke-linejoin: round; stroke-linecap: butt}</style>
 </defs>
 <g id="figure_1">
  <g id="patch_1">
   <path d="M 0 345.6 
L 460.8 345.6 
L 460.8 0 
L 0 0 
z
" style="fill: #ffffff"/>
  </g>
  <g id="axes_1">
   <g id="patch_2">
    <path d="M 57.6 307.584 
L 414.72 307.584 
L 414.72 41.472 
L 57.6 41.472 
z
" style="fill: #ffffff"/>
   </g>
   <g id="matplotlib.axis_1">
    <g id="xtick_1">
     <g id="line2d_1">
      <defs>
       <path id="m3336a2d670" d="M 0 0 
L 0 3.5 
" style="stroke: #000000; stroke-width: 0.8"/>
      </defs>
      <g>
       <use xlink:href="#m3336a2d670" x="73.832727" y="307.584" style="stroke: #000000; stroke-width: 0.8"/>
      </g>
     </g>
     <g id="text_1">
      <!-- 0 -->
      <g transform="translate(70.651477 322.182437) scale(0.1 -0.1)">
       <defs>
        <path id="DejaVuSans-30" d="M 2034 4250 
Q 1547 4250 1301 3770 
Q 1056 3291 1056 2328 
Q 1056 1369 1301 889 
Q 1547 409 2034 409 
Q 2525 409 2770 889 
Q 3016 1369 3016 2328 
Q 3016 3291 2770 3770 
Q 2525 4250 2034 4250 
z
M 2034 4750 
Q 2819 4750 3233 4129 
Q 3647 3509 3647 2328 
Q 3647 1150 3233 529 
Q 2819 -91 2034 -91 
Q 1250 -91 836 529 
Q 422 1150 422 2328 
Q 422 3509 836 4129 
Q 1250 4750 2034 4750 
z
" transform="scale(0.015625)"/>
       </defs>
       <use xlink:href="#DejaVuSans-30"/>
      </g>
     </g>
    </g>
    <g id="xtick_2">
     <g id="line2d_2">
      <g>
       <use xlink:href="#m3336a2d670" x="144.409802" y="307.584" style="stroke: #000000; stroke-width: 0.8"/>
      </g>
     </g>
     <g id="text_2">
      <!-- 5 -->
      <g transform="translate(141.228552 322.182437) scale(0.1 -0.1)">
       <defs>
        <path id="DejaVuSans-35" d="M 691 4666 
L 3169 4666 
L 3169 4134 
L 1269 4134 
L 1269 2991 
Q 1406 3038 1543 3061 
Q 1681 3084 1819 3084 
Q 2600 3084 3056 2656 
Q 3513 2228 3513 1497 
Q 3513 744 3044 326 
Q 2575 -91 1722 -91 
Q 1428 -91 1123 -41 
Q 819 9 494 109 
L 494 744 
Q 775 591 1075 516 
Q 1375 441 1709 441 
Q 2250 441 2565 725 
Q 2881 1009 2881 1497 
Q 2881 1984 2565 2268 
Q 2250 2553 1709 2553 
Q 1456 2553 1204 2497 
Q 953 2441 691 2322 
L 691 4666 
z
" transform="scale(0.015625)"/>
       </defs>
       <use xlink:href="#DejaVuSans-35"/>
      </g>
     </g>
    </g>
    <g id="xtick_3">
     <g id="line2d_3">
      <g>
       <use xlink:href="#m3336a2d670" x="214.986877" y="307.584" style="stroke: #000000; stroke-width: 0.8"/>
      </g>
     </g>
     <g id="text_3">
      <!-- 10 -->
      <g transform="translate(208.624377 322.182437) scale(0.1 -0.1)">
       <defs>
        <path id="DejaVuSans-31" d="M 794 531 
L 1825 531 
L 1825 4091 
L 703 3866 
L 703 4441 
L 1819 4666 
L 2450 4666 
L 2450 531 
L 3481 531 
L 3481 0 
L 794 0 
L 794 531 
z
" transform="scale(0.015625)"/>
       </defs>
       <use xlink:href="#DejaVuSans-31"/>
       <use xlink:href="#DejaVuSans-30" x="63.623047"/>
      </g>
     </g>
    </g>
    <g id="xtick_4">
     <g id="line2d_4">
      <g>
       <use xlink:href="#m3336a2d670" x="285.563953" y="307.584" style="stroke: #000000; stroke-width: 0.8"/>
      </g>
     </g>
     <g id="text_4">
      <!-- 15 -->
      <g transform="translate(279.201453 322.182437) scale(0.1 -0.1)">
       <use xlink:href="#DejaVuSans-31"/>
       <use xlink:href="#DejaVuSans-35" x="63.623047"/>
      </g>
     </g>
    </g>
    <g id="xtick_5">
     <g id="line2d_5">
      <g>
       <use xlink:href="#m3336a2d670" x="356.141028" y="307.584" style="stroke: #000000; stroke-width: 0.8"/>
      </g>
     </g>
     <g id="text_5">
      <!-- 20 -->
      <g transform="translate(349.778528 322.182437) scale(0.1 -0.1)">
       <defs>
        <path id="DejaVuSans-32" d="M 1228 531 
L 3431 531 
L 3431 0 
L 469 0 
L 469 531 
Q 828 903 1448 1529 
Q 2069 2156 2228 2338 
Q 2531 2678 2651 2914 
Q 2772 3150 2772 3378 
Q 2772 3750 2511 3984 
Q 2250 4219 1831 4219 
Q 1534 4219 1204 4116 
Q 875 4013 500 3803 
L 500 4441 
Q 881 4594 1212 4672 
Q 1544 4750 1819 4750 
Q 2544 4750 2975 4387 
Q 3406 4025 3406 3419 
Q 3406 3131 3298 2873 
Q 3191 2616 2906 2266 
Q 2828 2175 2409 1742 
Q 1991 1309 1228 531 
z
" transform="scale(0.015625)"/>
       </defs>
       <use xlink:href="#DejaVuSans-32"/>
       <use xlink:href="#DejaVuSans-30" x="63.623047"/>
      </g>
     </g>
    </g>
    <g id="text_6">
     <!-- times -->
     <g transform="translate(222.259219 335.860562) scale(0.1 -0.1)">
      <defs>
       <path id="DejaVuSans-74" d="M 1172 4494 
L 1172 3500 
L 2356 3500 
L 2356 3053 
L 1172 3053 
L 1172 1153 
Q 1172 725 1289 603 
Q 1406 481 1766 481 
L 2356 481 
L 2356 0 
L 1766 0 
Q 1100 0 847 248 
Q 594 497 594 1153 
L 594 3053 
L 172 3053 
L 172 3500 
L 594 3500 
L 594 4494 
L 1172 4494 
z
" transform="scale(0.015625)"/>
       <path id="DejaVuSans-69" d="M 603 3500 
L 1178 3500 
L 1178 0 
L 603 0 
L 603 3500 
z
M 603 4863 
L 1178 4863 
L 1178 4134 
L 603 4134 
L 603 4863 
z
" transform="scale(0.015625)"/>
       <path id="DejaVuSans-6d" d="M 3328 2828 
Q 3544 3216 3844 3400 
Q 4144 3584 4550 3584 
Q 5097 3584 5394 3201 
Q 5691 2819 5691 2113 
L 5691 0 
L 5113 0 
L 5113 2094 
Q 5113 2597 4934 2840 
Q 4756 3084 4391 3084 
Q 3944 3084 3684 2787 
Q 3425 2491 3425 1978 
L 3425 0 
L 2847 0 
L 2847 2094 
Q 2847 2600 2669 2842 
Q 2491 3084 2119 3084 
Q 1678 3084 1418 2786 
Q 1159 2488 1159 1978 
L 1159 0 
L 581 0 
L 581 3500 
L 1159 3500 
L 1159 2956 
Q 1356 3278 1631 3431 
Q 1906 3584 2284 3584 
Q 2666 3584 2933 3390 
Q 3200 3197 3328 2828 
z
" transform="scale(0.015625)"/>
       <path id="DejaVuSans-65" d="M 3597 1894 
L 3597 1613 
L 953 1613 
Q 991 1019 1311 708 
Q 1631 397 2203 397 
Q 2534 397 2845 478 
Q 3156 559 3463 722 
L 3463 178 
Q 3153 47 2828 -22 
Q 2503 -91 2169 -91 
Q 1331 -91 842 396 
Q 353 884 353 1716 
Q 353 2575 817 3079 
Q 1281 3584 2069 3584 
Q 2775 3584 3186 3129 
Q 3597 2675 3597 1894 
z
M 3022 2063 
Q 3016 2534 2758 2815 
Q 2500 3097 2075 3097 
Q 1594 3097 1305 2825 
Q 1016 2553 972 2059 
L 3022 2063 
z
" transform="scale(0.015625)"/>
       <path id="DejaVuSans-73" d="M 2834 3397 
L 2834 2853 
Q 2591 2978 2328 3040 
Q 2066 3103 1784 3103 
Q 1356 3103 1142 2972 
Q 928 2841 928 2578 
Q 928 2378 1081 2264 
Q 1234 2150 1697 2047 
L 1894 2003 
Q 2506 1872 2764 1633 
Q 3022 1394 3022 966 
Q 3022 478 2636 193 
Q 2250 -91 1575 -91 
Q 1294 -91 989 -36 
Q 684 19 347 128 
L 347 722 
Q 666 556 975 473 
Q 1284 391 1588 391 
Q 1994 391 2212 530 
Q 2431 669 2431 922 
Q 2431 1156 2273 1281 
Q 2116 1406 1581 1522 
L 1381 1569 
Q 847 1681 609 1914 
Q 372 2147 372 2553 
Q 372 3047 722 3315 
Q 1072 3584 1716 3584 
Q 2034 3584 2315 3537 
Q 2597 3491 2834 3397 
z
" transform="scale(0.015625)"/>
      </defs>
      <use xlink:href="#DejaVuSans-74"/>
      <use xlink:href="#DejaVuSans-69" x="39.208984"/>
      <use xlink:href="#DejaVuSans-6d" x="66.992188"/>
      <use xlink:href="#DejaVuSans-65" x="164.404297"/>
      <use xlink:href="#DejaVuSans-73" x="225.927734"/>
     </g>
    </g>
   </g>
   <g id="matplotlib.axis_2">
    <g id="ytick_1">
     <g id="line2d_6">
      <defs>
       <path id="mc95c138cd2" d="M 0 0 
L -3.5 0 
" style="stroke: #000000; stroke-width: 0.8"/>
      </defs>
      <g>
       <use xlink:href="#mc95c138cd2" x="57.6" y="295.488" style="stroke: #000000; stroke-width: 0.8"/>
      </g>
     </g>
     <g id="text_7">
      <!-- 0 -->
      <g transform="translate(44.2375 299.287219) scale(0.1 -0.1)">
       <use xlink:href="#DejaVuSans-30"/>
      </g>
     </g>
    </g>
    <g id="ytick_2">
     <g id="line2d_7">
      <g>
       <use xlink:href="#mc95c138cd2" x="57.6" y="263.905755" style="stroke: #000000; stroke-width: 0.8"/>
      </g>
     </g>
     <g id="text_8">
      <!-- 1000 -->
      <g transform="translate(25.15 267.704973) scale(0.1 -0.1)">
       <use xlink:href="#DejaVuSans-31"/>
       <use xlink:href="#DejaVuSans-30" x="63.623047"/>
       <use xlink:href="#DejaVuSans-30" x="127.246094"/>
       <use xlink:href="#DejaVuSans-30" x="190.869141"/>
      </g>
     </g>
    </g>
    <g id="ytick_3">
     <g id="line2d_8">
      <g>
       <use xlink:href="#mc95c138cd2" x="57.6" y="232.323509" style="stroke: #000000; stroke-width: 0.8"/>
      </g>
     </g>
     <g id="text_9">
      <!-- 2000 -->
      <g transform="translate(25.15 236.122728) scale(0.1 -0.1)">
       <use xlink:href="#DejaVuSans-32"/>
       <use xlink:href="#DejaVuSans-30" x="63.623047"/>
       <use xlink:href="#DejaVuSans-30" x="127.246094"/>
       <use xlink:href="#DejaVuSans-30" x="190.869141"/>
      </g>
     </g>
    </g>
    <g id="ytick_4">
     <g id="line2d_9">
      <g>
       <use xlink:href="#mc95c138cd2" x="57.6" y="200.741264" style="stroke: #000000; stroke-width: 0.8"/>
      </g>
     </g>
     <g id="text_10">
      <!-- 3000 -->
      <g transform="translate(25.15 204.540482) scale(0.1 -0.1)">
       <defs>
        <path id="DejaVuSans-33" d="M 2597 2516 
Q 3050 2419 3304 2112 
Q 3559 1806 3559 1356 
Q 3559 666 3084 287 
Q 2609 -91 1734 -91 
Q 1441 -91 1130 -33 
Q 819 25 488 141 
L 488 750 
Q 750 597 1062 519 
Q 1375 441 1716 441 
Q 2309 441 2620 675 
Q 2931 909 2931 1356 
Q 2931 1769 2642 2001 
Q 2353 2234 1838 2234 
L 1294 2234 
L 1294 2753 
L 1863 2753 
Q 2328 2753 2575 2939 
Q 2822 3125 2822 3475 
Q 2822 3834 2567 4026 
Q 2313 4219 1838 4219 
Q 1578 4219 1281 4162 
Q 984 4106 628 3988 
L 628 4550 
Q 988 4650 1302 4700 
Q 1616 4750 1894 4750 
Q 2613 4750 3031 4423 
Q 3450 4097 3450 3541 
Q 3450 3153 3228 2886 
Q 3006 2619 2597 2516 
z
" transform="scale(0.015625)"/>
       </defs>
       <use xlink:href="#DejaVuSans-33"/>
       <use xlink:href="#DejaVuSans-30" x="63.623047"/>
       <use xlink:href="#DejaVuSans-30" x="127.246094"/>
       <use xlink:href="#DejaVuSans-30" x="190.869141"/>
      </g>
     </g>
    </g>
    <g id="ytick_5">
     <g id="line2d_10">
      <g>
       <use xlink:href="#mc95c138cd2" x="57.6" y="169.159018" style="stroke: #000000; stroke-width: 0.8"/>
      </g>
     </g>
     <g id="text_11">
      <!-- 4000 -->
      <g transform="translate(25.15 172.958237) scale(0.1 -0.1)">
       <defs>
        <path id="DejaVuSans-34" d="M 2419 4116 
L 825 1625 
L 2419 1625 
L 2419 4116 
z
M 2253 4666 
L 3047 4666 
L 3047 1625 
L 3713 1625 
L 3713 1100 
L 3047 1100 
L 3047 0 
L 2419 0 
L 2419 1100 
L 313 1100 
L 313 1709 
L 2253 4666 
z
" transform="scale(0.015625)"/>
       </defs>
       <use xlink:href="#DejaVuSans-34"/>
       <use xlink:href="#DejaVuSans-30" x="63.623047"/>
       <use xlink:href="#DejaVuSans-30" x="127.246094"/>
       <use xlink:href="#DejaVuSans-30" x="190.869141"/>
      </g>
     </g>
    </g>
    <g id="ytick_6">
     <g id="line2d_11">
      <g>
       <use xlink:href="#mc95c138cd2" x="57.6" y="137.576773" style="stroke: #000000; stroke-width: 0.8"/>
      </g>
     </g>
     <g id="text_12">
      <!-- 5000 -->
      <g transform="translate(25.15 141.375992) scale(0.1 -0.1)">
       <use xlink:href="#DejaVuSans-35"/>
       <use xlink:href="#DejaVuSans-30" x="63.623047"/>
       <use xlink:href="#DejaVuSans-30" x="127.246094"/>
       <use xlink:href="#DejaVuSans-30" x="190.869141"/>
      </g>
     </g>
    </g>
    <g id="ytick_7">
     <g id="line2d_12">
      <g>
       <use xlink:href="#mc95c138cd2" x="57.6" y="105.994527" style="stroke: #000000; stroke-width: 0.8"/>
      </g>
     </g>
     <g id="text_13">
      <!-- 6000 -->
      <g transform="translate(25.15 109.793746) scale(0.1 -0.1)">
       <defs>
        <path id="DejaVuSans-36" d="M 2113 2584 
Q 1688 2584 1439 2293 
Q 1191 2003 1191 1497 
Q 1191 994 1439 701 
Q 1688 409 2113 409 
Q 2538 409 2786 701 
Q 3034 994 3034 1497 
Q 3034 2003 2786 2293 
Q 2538 2584 2113 2584 
z
M 3366 4563 
L 3366 3988 
Q 3128 4100 2886 4159 
Q 2644 4219 2406 4219 
Q 1781 4219 1451 3797 
Q 1122 3375 1075 2522 
Q 1259 2794 1537 2939 
Q 1816 3084 2150 3084 
Q 2853 3084 3261 2657 
Q 3669 2231 3669 1497 
Q 3669 778 3244 343 
Q 2819 -91 2113 -91 
Q 1303 -91 875 529 
Q 447 1150 447 2328 
Q 447 3434 972 4092 
Q 1497 4750 2381 4750 
Q 2619 4750 2861 4703 
Q 3103 4656 3366 4563 
z
" transform="scale(0.015625)"/>
       </defs>
       <use xlink:href="#DejaVuSans-36"/>
       <use xlink:href="#DejaVuSans-30" x="63.623047"/>
       <use xlink:href="#DejaVuSans-30" x="127.246094"/>
       <use xlink:href="#DejaVuSans-30" x="190.869141"/>
      </g>
     </g>
    </g>
    <g id="ytick_8">
     <g id="line2d_13">
      <g>
       <use xlink:href="#mc95c138cd2" x="57.6" y="74.412282" style="stroke: #000000; stroke-width: 0.8"/>
      </g>
     </g>
     <g id="text_14">
      <!-- 7000 -->
      <g transform="translate(25.15 78.211501) scale(0.1 -0.1)">
       <defs>
        <path id="DejaVuSans-37" d="M 525 4666 
L 3525 4666 
L 3525 4397 
L 1831 0 
L 1172 0 
L 2766 4134 
L 525 4134 
L 525 4666 
z
" transform="scale(0.015625)"/>
       </defs>
       <use xlink:href="#DejaVuSans-37"/>
       <use xlink:href="#DejaVuSans-30" x="63.623047"/>
       <use xlink:href="#DejaVuSans-30" x="127.246094"/>
       <use xlink:href="#DejaVuSans-30" x="190.869141"/>
      </g>
     </g>
    </g>
    <g id="ytick_9">
     <g id="line2d_14">
      <g>
       <use xlink:href="#mc95c138cd2" x="57.6" y="42.830037" style="stroke: #000000; stroke-width: 0.8"/>
      </g>
     </g>
     <g id="text_15">
      <!-- 8000 -->
      <g transform="translate(25.15 46.629255) scale(0.1 -0.1)">
       <defs>
        <path id="DejaVuSans-38" d="M 2034 2216 
Q 1584 2216 1326 1975 
Q 1069 1734 1069 1313 
Q 1069 891 1326 650 
Q 1584 409 2034 409 
Q 2484 409 2743 651 
Q 3003 894 3003 1313 
Q 3003 1734 2745 1975 
Q 2488 2216 2034 2216 
z
M 1403 2484 
Q 997 2584 770 2862 
Q 544 3141 544 3541 
Q 544 4100 942 4425 
Q 1341 4750 2034 4750 
Q 2731 4750 3128 4425 
Q 3525 4100 3525 3541 
Q 3525 3141 3298 2862 
Q 3072 2584 2669 2484 
Q 3125 2378 3379 2068 
Q 3634 1759 3634 1313 
Q 3634 634 3220 271 
Q 2806 -91 2034 -91 
Q 1263 -91 848 271 
Q 434 634 434 1313 
Q 434 1759 690 2068 
Q 947 2378 1403 2484 
z
M 1172 3481 
Q 1172 3119 1398 2916 
Q 1625 2713 2034 2713 
Q 2441 2713 2670 2916 
Q 2900 3119 2900 3481 
Q 2900 3844 2670 4047 
Q 2441 4250 2034 4250 
Q 1625 4250 1398 4047 
Q 1172 3844 1172 3481 
z
" transform="scale(0.015625)"/>
       </defs>
       <use xlink:href="#DejaVuSans-38"/>
       <use xlink:href="#DejaVuSans-30" x="63.623047"/>
       <use xlink:href="#DejaVuSans-30" x="127.246094"/>
       <use xlink:href="#DejaVuSans-30" x="190.869141"/>
      </g>
     </g>
    </g>
    <g id="text_16">
     <!-- score -->
     <g transform="translate(19.070312 187.960813) rotate(-90) scale(0.1 -0.1)">
      <defs>
       <path id="DejaVuSans-63" d="M 3122 3366 
L 3122 2828 
Q 2878 2963 2633 3030 
Q 2388 3097 2138 3097 
Q 1578 3097 1268 2742 
Q 959 2388 959 1747 
Q 959 1106 1268 751 
Q 1578 397 2138 397 
Q 2388 397 2633 464 
Q 2878 531 3122 666 
L 3122 134 
Q 2881 22 2623 -34 
Q 2366 -91 2075 -91 
Q 1284 -91 818 406 
Q 353 903 353 1747 
Q 353 2603 823 3093 
Q 1294 3584 2113 3584 
Q 2378 3584 2631 3529 
Q 2884 3475 3122 3366 
z
" transform="scale(0.015625)"/>
       <path id="DejaVuSans-6f" d="M 1959 3097 
Q 1497 3097 1228 2736 
Q 959 2375 959 1747 
Q 959 1119 1226 758 
Q 1494 397 1959 397 
Q 2419 397 2687 759 
Q 2956 1122 2956 1747 
Q 2956 2369 2687 2733 
Q 2419 3097 1959 3097 
z
M 1959 3584 
Q 2709 3584 3137 3096 
Q 3566 2609 3566 1747 
Q 3566 888 3137 398 
Q 2709 -91 1959 -91 
Q 1206 -91 779 398 
Q 353 888 353 1747 
Q 353 2609 779 3096 
Q 1206 3584 1959 3584 
z
" transform="scale(0.015625)"/>
       <path id="DejaVuSans-72" d="M 2631 2963 
Q 2534 3019 2420 3045 
Q 2306 3072 2169 3072 
Q 1681 3072 1420 2755 
Q 1159 2438 1159 1844 
L 1159 0 
L 581 0 
L 581 3500 
L 1159 3500 
L 1159 2956 
Q 1341 3275 1631 3429 
Q 1922 3584 2338 3584 
Q 2397 3584 2469 3576 
Q 2541 3569 2628 3553 
L 2631 2963 
z
" transform="scale(0.015625)"/>
      </defs>
      <use xlink:href="#DejaVuSans-73"/>
      <use xlink:href="#DejaVuSans-63" x="52.099609"/>
      <use xlink:href="#DejaVuSans-6f" x="107.080078"/>
      <use xlink:href="#DejaVuSans-72" x="168.261719"/>
      <use xlink:href="#DejaVuSans-65" x="207.125"/>
     </g>
    </g>
   </g>
   <g id="line2d_15">
    <path d="M 73.832727 295.488 
L 87.948142 282.855102 
L 102.063557 281.27599 
L 116.178972 279.696877 
L 130.294387 277.170298 
L 144.409802 276.22283 
L 158.525217 274.643718 
L 172.640632 268.327269 
L 186.756047 258.852595 
L 200.871462 257.273483 
L 214.986877 255.694371 
L 229.102292 254.115258 
L 243.217708 251.904501 
L 257.333123 248.746277 
L 271.448538 246.219697 
L 285.563953 243.061473 
L 299.679368 239.966413 
L 313.794783 236.808188 
L 327.910198 235.386987 
L 342.025613 234.597431 
L 356.141028 233.018319 
L 370.256443 231.439206 
L 384.371858 225.122757 
L 398.487273 221.964533 
" clip-path="url(#p49de0a9f6e)" style="fill: none; stroke: #1f77b4; stroke-width: 1.5; stroke-linecap: square"/>
    <defs>
     <path id="mce501af77b" d="M 0 3 
C 0.795609 3 1.55874 2.683901 2.12132 2.12132 
C 2.683901 1.55874 3 0.795609 3 0 
C 3 -0.795609 2.683901 -1.55874 2.12132 -2.12132 
C 1.55874 -2.683901 0.795609 -3 0 -3 
C -0.795609 -3 -1.55874 -2.683901 -2.12132 -2.12132 
C -2.683901 -1.55874 -3 -0.795609 -3 0 
C -3 0.795609 -2.683901 1.55874 -2.12132 2.12132 
C -1.55874 2.683901 -0.795609 3 0 3 
z
" style="stroke: #1f77b4"/>
    </defs>
    <g clip-path="url(#p49de0a9f6e)">
     <use xlink:href="#mce501af77b" x="73.832727" y="295.488" style="fill: #1f77b4; stroke: #1f77b4"/>
     <use xlink:href="#mce501af77b" x="87.948142" y="282.855102" style="fill: #1f77b4; stroke: #1f77b4"/>
     <use xlink:href="#mce501af77b" x="102.063557" y="281.27599" style="fill: #1f77b4; stroke: #1f77b4"/>
     <use xlink:href="#mce501af77b" x="116.178972" y="279.696877" style="fill: #1f77b4; stroke: #1f77b4"/>
     <use xlink:href="#mce501af77b" x="130.294387" y="277.170298" style="fill: #1f77b4; stroke: #1f77b4"/>
     <use xlink:href="#mce501af77b" x="144.409802" y="276.22283" style="fill: #1f77b4; stroke: #1f77b4"/>
     <use xlink:href="#mce501af77b" x="158.525217" y="274.643718" style="fill: #1f77b4; stroke: #1f77b4"/>
     <use xlink:href="#mce501af77b" x="172.640632" y="268.327269" style="fill: #1f77b4; stroke: #1f77b4"/>
     <use xlink:href="#mce501af77b" x="186.756047" y="258.852595" style="fill: #1f77b4; stroke: #1f77b4"/>
     <use xlink:href="#mce501af77b" x="200.871462" y="257.273483" style="fill: #1f77b4; stroke: #1f77b4"/>
     <use xlink:href="#mce501af77b" x="214.986877" y="255.694371" style="fill: #1f77b4; stroke: #1f77b4"/>
     <use xlink:href="#mce501af77b" x="229.102292" y="254.115258" style="fill: #1f77b4; stroke: #1f77b4"/>
     <use xlink:href="#mce501af77b" x="243.217708" y="251.904501" style="fill: #1f77b4; stroke: #1f77b4"/>
     <use xlink:href="#mce501af77b" x="257.333123" y="248.746277" style="fill: #1f77b4; stroke: #1f77b4"/>
     <use xlink:href="#mce501af77b" x="271.448538" y="246.219697" style="fill: #1f77b4; stroke: #1f77b4"/>
     <use xlink:href="#mce501af77b" x="285.563953" y="243.061473" style="fill: #1f77b4; stroke: #1f77b4"/>
     <use xlink:href="#mce501af77b" x="299.679368" y="239.966413" style="fill: #1f77b4; stroke: #1f77b4"/>
     <use xlink:href="#mce501af77b" x="313.794783" y="236.808188" style="fill: #1f77b4; stroke: #1f77b4"/>
     <use xlink:href="#mce501af77b" x="327.910198" y="235.386987" style="fill: #1f77b4; stroke: #1f77b4"/>
     <use xlink:href="#mce501af77b" x="342.025613" y="234.597431" style="fill: #1f77b4; stroke: #1f77b4"/>
     <use xlink:href="#mce501af77b" x="356.141028" y="233.018319" style="fill: #1f77b4; stroke: #1f77b4"/>
     <use xlink:href="#mce501af77b" x="370.256443" y="231.439206" style="fill: #1f77b4; stroke: #1f77b4"/>
     <use xlink:href="#mce501af77b" x="384.371858" y="225.122757" style="fill: #1f77b4; stroke: #1f77b4"/>
     <use xlink:href="#mce501af77b" x="398.487273" y="221.964533" style="fill: #1f77b4; stroke: #1f77b4"/>
    </g>
   </g>
   <g id="line2d_16">
    <path d="M 73.832727 295.488 
L 87.948142 293.908888 
L 102.063557 291.382308 
L 116.178972 288.224084 
L 130.294387 283.486747 
L 144.409802 281.907634 
L 158.525217 278.74941 
L 172.640632 275.591185 
L 186.756047 274.643718 
L 200.871462 265.169044 
L 214.986877 262.642465 
L 229.102292 260.74753 
L 243.217708 256.199687 
L 257.333123 253.00988 
L 271.448538 249.851655 
" clip-path="url(#p49de0a9f6e)" style="fill: none; stroke: #ff7f0e; stroke-width: 1.5; stroke-linecap: square"/>
    <defs>
     <path id="ma385ed633b" d="M 0 3 
C 0.795609 3 1.55874 2.683901 2.12132 2.12132 
C 2.683901 1.55874 3 0.795609 3 0 
C 3 -0.795609 2.683901 -1.55874 2.12132 -2.12132 
C 1.55874 -2.683901 0.795609 -3 0 -3 
C -0.795609 -3 -1.55874 -2.683901 -2.12132 -2.12132 
C -2.683901 -1.55874 -3 -0.795609 -3 0 
C -3 0.795609 -2.683901 1.55874 -2.12132 2.12132 
C -1.55874 2.683901 -0.795609 3 0 3 
z
" style="stroke: #ff7f0e"/>
    </defs>
    <g clip-path="url(#p49de0a9f6e)">
     <use xlink:href="#ma385ed633b" x="73.832727" y="295.488" style="fill: #ff7f0e; stroke: #ff7f0e"/>
     <use xlink:href="#ma385ed633b" x="87.948142" y="293.908888" style="fill: #ff7f0e; stroke: #ff7f0e"/>
     <use xlink:href="#ma385ed633b" x="102.063557" y="291.382308" style="fill: #ff7f0e; stroke: #ff7f0e"/>
     <use xlink:href="#ma385ed633b" x="116.178972" y="288.224084" style="fill: #ff7f0e; stroke: #ff7f0e"/>
     <use xlink:href="#ma385ed633b" x="130.294387" y="283.486747" style="fill: #ff7f0e; stroke: #ff7f0e"/>
     <use xlink:href="#ma385ed633b" x="144.409802" y="281.907634" style="fill: #ff7f0e; stroke: #ff7f0e"/>
     <use xlink:href="#ma385ed633b" x="158.525217" y="278.74941" style="fill: #ff7f0e; stroke: #ff7f0e"/>
     <use xlink:href="#ma385ed633b" x="172.640632" y="275.591185" style="fill: #ff7f0e; stroke: #ff7f0e"/>
     <use xlink:href="#ma385ed633b" x="186.756047" y="274.643718" style="fill: #ff7f0e; stroke: #ff7f0e"/>
     <use xlink:href="#ma385ed633b" x="200.871462" y="265.169044" style="fill: #ff7f0e; stroke: #ff7f0e"/>
     <use xlink:href="#ma385ed633b" x="214.986877" y="262.642465" style="fill: #ff7f0e; stroke: #ff7f0e"/>
     <use xlink:href="#ma385ed633b" x="229.102292" y="260.74753" style="fill: #ff7f0e; stroke: #ff7f0e"/>
     <use xlink:href="#ma385ed633b" x="243.217708" y="256.199687" style="fill: #ff7f0e; stroke: #ff7f0e"/>
     <use xlink:href="#ma385ed633b" x="257.333123" y="253.00988" style="fill: #ff7f0e; stroke: #ff7f0e"/>
     <use xlink:href="#ma385ed633b" x="271.448538" y="249.851655" style="fill: #ff7f0e; stroke: #ff7f0e"/>
    </g>
   </g>
   <g id="line2d_17">
    <path d="M 73.832727 295.488 
L 87.948142 292.329775 
L 102.063557 290.750663 
L 116.178972 287.971426 
L 130.294387 277.865107 
L 144.409802 276.285995 
L 158.525217 271.359164 
L 172.640632 255.883864 
L 186.756047 251.778172 
L 200.871462 248.619948 
L 214.986877 245.461723 
L 229.102292 243.566789 
L 243.217708 241.356031 
L 257.333123 239.776919 
L 271.448538 230.302245 
L 285.563953 227.144021 
L 299.679368 224.933264 
L 313.794783 223.354151 
" clip-path="url(#p49de0a9f6e)" style="fill: none; stroke: #2ca02c; stroke-width: 1.5; stroke-linecap: square"/>
    <defs>
     <path id="m81d7babca6" d="M 0 3 
C 0.795609 3 1.55874 2.683901 2.12132 2.12132 
C 2.683901 1.55874 3 0.795609 3 0 
C 3 -0.795609 2.683901 -1.55874 2.12132 -2.12132 
C 1.55874 -2.683901 0.795609 -3 0 -3 
C -0.795609 -3 -1.55874 -2.683901 -2.12132 -2.12132 
C -2.683901 -1.55874 -3 -0.795609 -3 0 
C -3 0.795609 -2.683901 1.55874 -2.12132 2.12132 
C -1.55874 2.683901 -0.795609 3 0 3 
z
" style="stroke: #2ca02c"/>
    </defs>
    <g clip-path="url(#p49de0a9f6e)">
     <use xlink:href="#m81d7babca6" x="73.832727" y="295.488" style="fill: #2ca02c; stroke: #2ca02c"/>
     <use xlink:href="#m81d7babca6" x="87.948142" y="292.329775" style="fill: #2ca02c; stroke: #2ca02c"/>
     <use xlink:href="#m81d7babca6" x="102.063557" y="290.750663" style="fill: #2ca02c; stroke: #2ca02c"/>
     <use xlink:href="#m81d7babca6" x="116.178972" y="287.971426" style="fill: #2ca02c; stroke: #2ca02c"/>
     <use xlink:href="#m81d7babca6" x="130.294387" y="277.865107" style="fill: #2ca02c; stroke: #2ca02c"/>
     <use xlink:href="#m81d7babca6" x="144.409802" y="276.285995" style="fill: #2ca02c; stroke: #2ca02c"/>
     <use xlink:href="#m81d7babca6" x="158.525217" y="271.359164" style="fill: #2ca02c; stroke: #2ca02c"/>
     <use xlink:href="#m81d7babca6" x="172.640632" y="255.883864" style="fill: #2ca02c; stroke: #2ca02c"/>
     <use xlink:href="#m81d7babca6" x="186.756047" y="251.778172" style="fill: #2ca02c; stroke: #2ca02c"/>
     <use xlink:href="#m81d7babca6" x="200.871462" y="248.619948" style="fill: #2ca02c; stroke: #2ca02c"/>
     <use xlink:href="#m81d7babca6" x="214.986877" y="245.461723" style="fill: #2ca02c; stroke: #2ca02c"/>
     <use xlink:href="#m81d7babca6" x="229.102292" y="243.566789" style="fill: #2ca02c; stroke: #2ca02c"/>
     <use xlink:href="#m81d7babca6" x="243.217708" y="241.356031" style="fill: #2ca02c; stroke: #2ca02c"/>
     <use xlink:href="#m81d7babca6" x="257.333123" y="239.776919" style="fill: #2ca02c; stroke: #2ca02c"/>
     <use xlink:href="#m81d7babca6" x="271.448538" y="230.302245" style="fill: #2ca02c; stroke: #2ca02c"/>
     <use xlink:href="#m81d7babca6" x="285.563953" y="227.144021" style="fill: #2ca02c; stroke: #2ca02c"/>
     <use xlink:href="#m81d7babca6" x="299.679368" y="224.933264" style="fill: #2ca02c; stroke: #2ca02c"/>
     <use xlink:href="#m81d7babca6" x="313.794783" y="223.354151" style="fill: #2ca02c; stroke: #2ca02c"/>
    </g>
   </g>
   <g id="line2d_18">
    <path d="M 73.832727 295.488 
L 87.948142 292.96142 
L 102.063557 289.803196 
L 116.178972 278.74941 
L 130.294387 270.853849 
L 144.409802 267.695624 
L 158.525217 265.169044 
L 172.640632 170.422308 
L 186.756047 167.579906 
L 200.871462 165.369149 
L 214.986877 163.790037 
L 229.102292 132.207791 
L 243.217708 129.049567 
L 257.333123 125.57552 
L 271.448538 109.784397 
L 285.563953 78.202151 
L 299.679368 75.991394 
L 313.794783 71.254057 
L 327.910198 61.779384 
L 342.025613 55.462935 
L 356.141028 53.568 
" clip-path="url(#p49de0a9f6e)" style="fill: none; stroke: #d62728; stroke-width: 1.5; stroke-linecap: square"/>
    <defs>
     <path id="m95ece34543" d="M 0 3 
C 0.795609 3 1.55874 2.683901 2.12132 2.12132 
C 2.683901 1.55874 3 0.795609 3 0 
C 3 -0.795609 2.683901 -1.55874 2.12132 -2.12132 
C 1.55874 -2.683901 0.795609 -3 0 -3 
C -0.795609 -3 -1.55874 -2.683901 -2.12132 -2.12132 
C -2.683901 -1.55874 -3 -0.795609 -3 0 
C -3 0.795609 -2.683901 1.55874 -2.12132 2.12132 
C -1.55874 2.683901 -0.795609 3 0 3 
z
" style="stroke: #d62728"/>
    </defs>
    <g clip-path="url(#p49de0a9f6e)">
     <use xlink:href="#m95ece34543" x="73.832727" y="295.488" style="fill: #d62728; stroke: #d62728"/>
     <use xlink:href="#m95ece34543" x="87.948142" y="292.96142" style="fill: #d62728; stroke: #d62728"/>
     <use xlink:href="#m95ece34543" x="102.063557" y="289.803196" style="fill: #d62728; stroke: #d62728"/>
     <use xlink:href="#m95ece34543" x="116.178972" y="278.74941" style="fill: #d62728; stroke: #d62728"/>
     <use xlink:href="#m95ece34543" x="130.294387" y="270.853849" style="fill: #d62728; stroke: #d62728"/>
     <use xlink:href="#m95ece34543" x="144.409802" y="267.695624" style="fill: #d62728; stroke: #d62728"/>
     <use xlink:href="#m95ece34543" x="158.525217" y="265.169044" style="fill: #d62728; stroke: #d62728"/>
     <use xlink:href="#m95ece34543" x="172.640632" y="170.422308" style="fill: #d62728; stroke: #d62728"/>
     <use xlink:href="#m95ece34543" x="186.756047" y="167.579906" style="fill: #d62728; stroke: #d62728"/>
     <use xlink:href="#m95ece34543" x="200.871462" y="165.369149" style="fill: #d62728; stroke: #d62728"/>
     <use xlink:href="#m95ece34543" x="214.986877" y="163.790037" style="fill: #d62728; stroke: #d62728"/>
     <use xlink:href="#m95ece34543" x="229.102292" y="132.207791" style="fill: #d62728; stroke: #d62728"/>
     <use xlink:href="#m95ece34543" x="243.217708" y="129.049567" style="fill: #d62728; stroke: #d62728"/>
     <use xlink:href="#m95ece34543" x="257.333123" y="125.57552" style="fill: #d62728; stroke: #d62728"/>
     <use xlink:href="#m95ece34543" x="271.448538" y="109.784397" style="fill: #d62728; stroke: #d62728"/>
     <use xlink:href="#m95ece34543" x="285.563953" y="78.202151" style="fill: #d62728; stroke: #d62728"/>
     <use xlink:href="#m95ece34543" x="299.679368" y="75.991394" style="fill: #d62728; stroke: #d62728"/>
     <use xlink:href="#m95ece34543" x="313.794783" y="71.254057" style="fill: #d62728; stroke: #d62728"/>
     <use xlink:href="#m95ece34543" x="327.910198" y="61.779384" style="fill: #d62728; stroke: #d62728"/>
     <use xlink:href="#m95ece34543" x="342.025613" y="55.462935" style="fill: #d62728; stroke: #d62728"/>
     <use xlink:href="#m95ece34543" x="356.141028" y="53.568" style="fill: #d62728; stroke: #d62728"/>
    </g>
   </g>
   <g id="line2d_19">
    <path d="M 73.832727 295.488 
L 87.948142 288.539906 
L 102.063557 275.907008 
L 116.178972 271.169671 
L 130.294387 268.011446 
L 144.409802 264.853222 
L 158.525217 239.587426 
L 172.640632 233.902621 
L 186.756047 231.691864 
L 200.871462 206.426068 
L 214.986877 204.846956 
L 229.102292 203.267843 
L 243.217708 196.951394 
L 257.333123 171.685598 
L 271.448538 146.419802 
L 285.563953 143.261577 
L 299.679368 133.786903 
L 313.794783 124.31223 
L 327.910198 122.733117 
L 342.025613 121.154005 
L 356.141028 120.52236 
L 370.256443 95.256564 
L 384.371858 69.990768 
" clip-path="url(#p49de0a9f6e)" style="fill: none; stroke: #9467bd; stroke-width: 1.5; stroke-linecap: square"/>
    <defs>
     <path id="m8579952951" d="M 0 3 
C 0.795609 3 1.55874 2.683901 2.12132 2.12132 
C 2.683901 1.55874 3 0.795609 3 0 
C 3 -0.795609 2.683901 -1.55874 2.12132 -2.12132 
C 1.55874 -2.683901 0.795609 -3 0 -3 
C -0.795609 -3 -1.55874 -2.683901 -2.12132 -2.12132 
C -2.683901 -1.55874 -3 -0.795609 -3 0 
C -3 0.795609 -2.683901 1.55874 -2.12132 2.12132 
C -1.55874 2.683901 -0.795609 3 0 3 
z
" style="stroke: #9467bd"/>
    </defs>
    <g clip-path="url(#p49de0a9f6e)">
     <use xlink:href="#m8579952951" x="73.832727" y="295.488" style="fill: #9467bd; stroke: #9467bd"/>
     <use xlink:href="#m8579952951" x="87.948142" y="288.539906" style="fill: #9467bd; stroke: #9467bd"/>
     <use xlink:href="#m8579952951" x="102.063557" y="275.907008" style="fill: #9467bd; stroke: #9467bd"/>
     <use xlink:href="#m8579952951" x="116.178972" y="271.169671" style="fill: #9467bd; stroke: #9467bd"/>
     <use xlink:href="#m8579952951" x="130.294387" y="268.011446" style="fill: #9467bd; stroke: #9467bd"/>
     <use xlink:href="#m8579952951" x="144.409802" y="264.853222" style="fill: #9467bd; stroke: #9467bd"/>
     <use xlink:href="#m8579952951" x="158.525217" y="239.587426" style="fill: #9467bd; stroke: #9467bd"/>
     <use xlink:href="#m8579952951" x="172.640632" y="233.902621" style="fill: #9467bd; stroke: #9467bd"/>
     <use xlink:href="#m8579952951" x="186.756047" y="231.691864" style="fill: #9467bd; stroke: #9467bd"/>
     <use xlink:href="#m8579952951" x="200.871462" y="206.426068" style="fill: #9467bd; stroke: #9467bd"/>
     <use xlink:href="#m8579952951" x="214.986877" y="204.846956" style="fill: #9467bd; stroke: #9467bd"/>
     <use xlink:href="#m8579952951" x="229.102292" y="203.267843" style="fill: #9467bd; stroke: #9467bd"/>
     <use xlink:href="#m8579952951" x="243.217708" y="196.951394" style="fill: #9467bd; stroke: #9467bd"/>
     <use xlink:href="#m8579952951" x="257.333123" y="171.685598" style="fill: #9467bd; stroke: #9467bd"/>
     <use xlink:href="#m8579952951" x="271.448538" y="146.419802" style="fill: #9467bd; stroke: #9467bd"/>
     <use xlink:href="#m8579952951" x="285.563953" y="143.261577" style="fill: #9467bd; stroke: #9467bd"/>
     <use xlink:href="#m8579952951" x="299.679368" y="133.786903" style="fill: #9467bd; stroke: #9467bd"/>
     <use xlink:href="#m8579952951" x="313.794783" y="124.31223" style="fill: #9467bd; stroke: #9467bd"/>
     <use xlink:href="#m8579952951" x="327.910198" y="122.733117" style="fill: #9467bd; stroke: #9467bd"/>
     <use xlink:href="#m8579952951" x="342.025613" y="121.154005" style="fill: #9467bd; stroke: #9467bd"/>
     <use xlink:href="#m8579952951" x="356.141028" y="120.52236" style="fill: #9467bd; stroke: #9467bd"/>
     <use xlink:href="#m8579952951" x="370.256443" y="95.256564" style="fill: #9467bd; stroke: #9467bd"/>
     <use xlink:href="#m8579952951" x="384.371858" y="69.990768" style="fill: #9467bd; stroke: #9467bd"/>
    </g>
   </g>
   <g id="line2d_20">
    <path d="M 73.832727 295.488 
L 87.948142 292.329775 
L 102.063557 273.380428 
L 116.178972 267.063979 
L 130.294387 254.431081 
L 144.409802 252.851969 
L 158.525217 251.588679 
L 172.640632 249.062099 
L 186.756047 217.479854 
L 200.871462 198.530507 
L 214.986877 189.055833 
L 229.102292 185.897608 
L 243.217708 156.210298 
L 257.333123 140.419175 
" clip-path="url(#p49de0a9f6e)" style="fill: none; stroke: #8c564b; stroke-width: 1.5; stroke-linecap: square"/>
    <defs>
     <path id="m1b1c0c53fa" d="M 0 3 
C 0.795609 3 1.55874 2.683901 2.12132 2.12132 
C 2.683901 1.55874 3 0.795609 3 0 
C 3 -0.795609 2.683901 -1.55874 2.12132 -2.12132 
C 1.55874 -2.683901 0.795609 -3 0 -3 
C -0.795609 -3 -1.55874 -2.683901 -2.12132 -2.12132 
C -2.683901 -1.55874 -3 -0.795609 -3 0 
C -3 0.795609 -2.683901 1.55874 -2.12132 2.12132 
C -1.55874 2.683901 -0.795609 3 0 3 
z
" style="stroke: #8c564b"/>
    </defs>
    <g clip-path="url(#p49de0a9f6e)">
     <use xlink:href="#m1b1c0c53fa" x="73.832727" y="295.488" style="fill: #8c564b; stroke: #8c564b"/>
     <use xlink:href="#m1b1c0c53fa" x="87.948142" y="292.329775" style="fill: #8c564b; stroke: #8c564b"/>
     <use xlink:href="#m1b1c0c53fa" x="102.063557" y="273.380428" style="fill: #8c564b; stroke: #8c564b"/>
     <use xlink:href="#m1b1c0c53fa" x="116.178972" y="267.063979" style="fill: #8c564b; stroke: #8c564b"/>
     <use xlink:href="#m1b1c0c53fa" x="130.294387" y="254.431081" style="fill: #8c564b; stroke: #8c564b"/>
     <use xlink:href="#m1b1c0c53fa" x="144.409802" y="252.851969" style="fill: #8c564b; stroke: #8c564b"/>
     <use xlink:href="#m1b1c0c53fa" x="158.525217" y="251.588679" style="fill: #8c564b; stroke: #8c564b"/>
     <use xlink:href="#m1b1c0c53fa" x="172.640632" y="249.062099" style="fill: #8c564b; stroke: #8c564b"/>
     <use xlink:href="#m1b1c0c53fa" x="186.756047" y="217.479854" style="fill: #8c564b; stroke: #8c564b"/>
     <use xlink:href="#m1b1c0c53fa" x="200.871462" y="198.530507" style="fill: #8c564b; stroke: #8c564b"/>
     <use xlink:href="#m1b1c0c53fa" x="214.986877" y="189.055833" style="fill: #8c564b; stroke: #8c564b"/>
     <use xlink:href="#m1b1c0c53fa" x="229.102292" y="185.897608" style="fill: #8c564b; stroke: #8c564b"/>
     <use xlink:href="#m1b1c0c53fa" x="243.217708" y="156.210298" style="fill: #8c564b; stroke: #8c564b"/>
     <use xlink:href="#m1b1c0c53fa" x="257.333123" y="140.419175" style="fill: #8c564b; stroke: #8c564b"/>
    </g>
   </g>
   <g id="patch_3">
    <path d="M 57.6 307.584 
L 57.6 41.472 
" style="fill: none; stroke: #000000; stroke-width: 0.8; stroke-linejoin: miter; stroke-linecap: square"/>
   </g>
   <g id="patch_4">
    <path d="M 414.72 307.584 
L 414.72 41.472 
" style="fill: none; stroke: #000000; stroke-width: 0.8; stroke-linejoin: miter; stroke-linecap: square"/>
   </g>
   <g id="patch_5">
    <path d="M 57.6 307.584 
L 414.72 307.584 
" style="fill: none; stroke: #000000; stroke-width: 0.8; stroke-linejoin: miter; stroke-linecap: square"/>
   </g>
   <g id="patch_6">
    <path d="M 57.6 41.472 
L 414.72 41.472 
" style="fill: none; stroke: #000000; stroke-width: 0.8; stroke-linejoin: miter; stroke-linecap: square"/>
   </g>
   <g id="legend_1">
    <g id="patch_7">
     <path d="M 64.6 137.54075 
L 123.49375 137.54075 
Q 125.49375 137.54075 125.49375 135.54075 
L 125.49375 48.472 
Q 125.49375 46.472 123.49375 46.472 
L 64.6 46.472 
Q 62.6 46.472 62.6 48.472 
L 62.6 135.54075 
Q 62.6 137.54075 64.6 137.54075 
z
" style="fill: #ffffff; opacity: 0.8; stroke: #cccccc; stroke-linejoin: miter"/>
    </g>
    <g id="line2d_21">
     <path d="M 66.6 54.570438 
L 76.6 54.570438 
L 86.6 54.570438 
" style="fill: none; stroke: #1f77b4; stroke-width: 1.5; stroke-linecap: square"/>
     <g>
      <use xlink:href="#mce501af77b" x="76.6" y="54.570438" style="fill: #1f77b4; stroke: #1f77b4"/>
     </g>
    </g>
    <g id="text_17">
     <!-- turn1 -->
     <g transform="translate(94.6 58.070438) scale(0.1 -0.1)">
      <defs>
       <path id="DejaVuSans-75" d="M 544 1381 
L 544 3500 
L 1119 3500 
L 1119 1403 
Q 1119 906 1312 657 
Q 1506 409 1894 409 
Q 2359 409 2629 706 
Q 2900 1003 2900 1516 
L 2900 3500 
L 3475 3500 
L 3475 0 
L 2900 0 
L 2900 538 
Q 2691 219 2414 64 
Q 2138 -91 1772 -91 
Q 1169 -91 856 284 
Q 544 659 544 1381 
z
M 1991 3584 
L 1991 3584 
z
" transform="scale(0.015625)"/>
       <path id="DejaVuSans-6e" d="M 3513 2113 
L 3513 0 
L 2938 0 
L 2938 2094 
Q 2938 2591 2744 2837 
Q 2550 3084 2163 3084 
Q 1697 3084 1428 2787 
Q 1159 2491 1159 1978 
L 1159 0 
L 581 0 
L 581 3500 
L 1159 3500 
L 1159 2956 
Q 1366 3272 1645 3428 
Q 1925 3584 2291 3584 
Q 2894 3584 3203 3211 
Q 3513 2838 3513 2113 
z
" transform="scale(0.015625)"/>
      </defs>
      <use xlink:href="#DejaVuSans-74"/>
      <use xlink:href="#DejaVuSans-75" x="39.208984"/>
      <use xlink:href="#DejaVuSans-72" x="102.587891"/>
      <use xlink:href="#DejaVuSans-6e" x="141.951172"/>
      <use xlink:href="#DejaVuSans-31" x="205.330078"/>
     </g>
    </g>
    <g id="line2d_22">
     <path d="M 66.6 69.248563 
L 76.6 69.248563 
L 86.6 69.248563 
" style="fill: none; stroke: #ff7f0e; stroke-width: 1.5; stroke-linecap: square"/>
     <g>
      <use xlink:href="#ma385ed633b" x="76.6" y="69.248563" style="fill: #ff7f0e; stroke: #ff7f0e"/>
     </g>
    </g>
    <g id="text_18">
     <!-- turn2 -->
     <g transform="translate(94.6 72.748563) scale(0.1 -0.1)">
      <use xlink:href="#DejaVuSans-74"/>
      <use xlink:href="#DejaVuSans-75" x="39.208984"/>
      <use xlink:href="#DejaVuSans-72" x="102.587891"/>
      <use xlink:href="#DejaVuSans-6e" x="141.951172"/>
      <use xlink:href="#DejaVuSans-32" x="205.330078"/>
     </g>
    </g>
    <g id="line2d_23">
     <path d="M 66.6 83.926688 
L 76.6 83.926688 
L 86.6 83.926688 
" style="fill: none; stroke: #2ca02c; stroke-width: 1.5; stroke-linecap: square"/>
     <g>
      <use xlink:href="#m81d7babca6" x="76.6" y="83.926688" style="fill: #2ca02c; stroke: #2ca02c"/>
     </g>
    </g>
    <g id="text_19">
     <!-- turn3 -->
     <g transform="translate(94.6 87.426688) scale(0.1 -0.1)">
      <use xlink:href="#DejaVuSans-74"/>
      <use xlink:href="#DejaVuSans-75" x="39.208984"/>
      <use xlink:href="#DejaVuSans-72" x="102.587891"/>
      <use xlink:href="#DejaVuSans-6e" x="141.951172"/>
      <use xlink:href="#DejaVuSans-33" x="205.330078"/>
     </g>
    </g>
    <g id="line2d_24">
     <path d="M 66.6 98.604813 
L 76.6 98.604813 
L 86.6 98.604813 
" style="fill: none; stroke: #d62728; stroke-width: 1.5; stroke-linecap: square"/>
     <g>
      <use xlink:href="#m95ece34543" x="76.6" y="98.604813" style="fill: #d62728; stroke: #d62728"/>
     </g>
    </g>
    <g id="text_20">
     <!-- turn4 -->
     <g transform="translate(94.6 102.104813) scale(0.1 -0.1)">
      <use xlink:href="#DejaVuSans-74"/>
      <use xlink:href="#DejaVuSans-75" x="39.208984"/>
      <use xlink:href="#DejaVuSans-72" x="102.587891"/>
      <use xlink:href="#DejaVuSans-6e" x="141.951172"/>
      <use xlink:href="#DejaVuSans-34" x="205.330078"/>
     </g>
    </g>
    <g id="line2d_25">
     <path d="M 66.6 113.282938 
L 76.6 113.282938 
L 86.6 113.282938 
" style="fill: none; stroke: #9467bd; stroke-width: 1.5; stroke-linecap: square"/>
     <g>
      <use xlink:href="#m8579952951" x="76.6" y="113.282938" style="fill: #9467bd; stroke: #9467bd"/>
     </g>
    </g>
    <g id="text_21">
     <!-- turn5 -->
     <g transform="translate(94.6 116.782938) scale(0.1 -0.1)">
      <use xlink:href="#DejaVuSans-74"/>
      <use xlink:href="#DejaVuSans-75" x="39.208984"/>
      <use xlink:href="#DejaVuSans-72" x="102.587891"/>
      <use xlink:href="#DejaVuSans-6e" x="141.951172"/>
      <use xlink:href="#DejaVuSans-35" x="205.330078"/>
     </g>
    </g>
    <g id="line2d_26">
     <path d="M 66.6 127.961063 
L 76.6 127.961063 
L 86.6 127.961063 
" style="fill: none; stroke: #8c564b; stroke-width: 1.5; stroke-linecap: square"/>
     <g>
      <use xlink:href="#m1b1c0c53fa" x="76.6" y="127.961063" style="fill: #8c564b; stroke: #8c564b"/>
     </g>
    </g>
    <g id="text_22">
     <!-- turn6 -->
     <g transform="translate(94.6 131.461063) scale(0.1 -0.1)">
      <use xlink:href="#DejaVuSans-74"/>
      <use xlink:href="#DejaVuSans-75" x="39.208984"/>
      <use xlink:href="#DejaVuSans-72" x="102.587891"/>
      <use xlink:href="#DejaVuSans-6e" x="141.951172"/>
      <use xlink:href="#DejaVuSans-36" x="205.330078"/>
     </g>
    </g>
   </g>
  </g>
 </g>
 <defs>
  <clipPath id="p49de0a9f6e">
   <rect x="57.6" y="41.472" width="357.12" height="266.112"/>
  </clipPath>
 </defs>
</svg>
