<?xml version="1.0" encoding="utf-8" standalone="no"?>
<!DOCTYPE svg PUBLIC "-//W3C//DTD SVG 1.1//EN"
  "http://www.w3.org/Graphics/SVG/1.1/DTD/svg11.dtd">
<svg xmlns:xlink="http://www.w3.org/1999/xlink" width="460.8pt" height="345.6pt" viewBox="0 0 460.8 345.6" xmlns="http://www.w3.org/2000/svg" version="1.1">
 <metadata>
  <rdf:RDF xmlns:dc="http://purl.org/dc/elements/1.1/" xmlns:cc="http://creativecommons.org/ns#" xmlns:rdf="http://www.w3.org/1999/02/22-rdf-syntax-ns#">
   <cc:Work>
    <dc:type rdf:resource="http://purl.org/dc/dcmitype/StillImage"/>
    <dc:date>2023-02-09T15:11:00.656489</dc:date>
    <dc:format>image/svg+xml</dc:format>
    <dc:creator>
     <cc:Agent>
      <dc:title>Matplotlib v3.6.2, https://matplotlib.org/</dc:title>
     </cc:Agent>
    </dc:creator>
   </cc:Work>
  </rdf:RDF>
 </metadata>
 <defs>
  <style type="text/css">*{stroke-linejoin: round; stroke-linecap: butt}</style>
 </defs>
 <g id="figure_1">
  <g id="patch_1">
   <path d="M 0 345.6 
L 460.8 345.6 
L 460.8 0 
L 0 0 
z
" style="fill: #ffffff"/>
  </g>
  <g id="axes_1">
   <g id="patch_2">
    <path d="M 57.6 307.584 
L 414.72 307.584 
L 414.72 41.472 
L 57.6 41.472 
z
" style="fill: #ffffff"/>
   </g>
   <g id="matplotlib.axis_1">
    <g id="xtick_1">
     <g id="line2d_1">
      <defs>
       <path id="md58afdc134" d="M 0 0 
L 0 3.5 
" style="stroke: #000000; stroke-width: 0.8"/>
      </defs>
      <g>
       <use xlink:href="#md58afdc134" x="73.832727" y="307.584" style="stroke: #000000; stroke-width: 0.8"/>
      </g>
     </g>
     <g id="text_1">
      <!-- 0 -->
      <g transform="translate(70.651477 322.182437) scale(0.1 -0.1)">
       <defs>
        <path id="DejaVuSans-30" d="M 2034 4250 
Q 1547 4250 1301 3770 
Q 1056 3291 1056 2328 
Q 1056 1369 1301 889 
Q 1547 409 2034 409 
Q 2525 409 2770 889 
Q 3016 1369 3016 2328 
Q 3016 3291 2770 3770 
Q 2525 4250 2034 4250 
z
M 2034 4750 
Q 2819 4750 3233 4129 
Q 3647 3509 3647 2328 
Q 3647 1150 3233 529 
Q 2819 -91 2034 -91 
Q 1250 -91 836 529 
Q 422 1150 422 2328 
Q 422 3509 836 4129 
Q 1250 4750 2034 4750 
z
" transform="scale(0.015625)"/>
       </defs>
       <use xlink:href="#DejaVuSans-30"/>
      </g>
     </g>
    </g>
    <g id="xtick_2">
     <g id="line2d_2">
      <g>
       <use xlink:href="#md58afdc134" x="144.409802" y="307.584" style="stroke: #000000; stroke-width: 0.8"/>
      </g>
     </g>
     <g id="text_2">
      <!-- 5 -->
      <g transform="translate(141.228552 322.182437) scale(0.1 -0.1)">
       <defs>
        <path id="DejaVuSans-35" d="M 691 4666 
L 3169 4666 
L 3169 4134 
L 1269 4134 
L 1269 2991 
Q 1406 3038 1543 3061 
Q 1681 3084 1819 3084 
Q 2600 3084 3056 2656 
Q 3513 2228 3513 1497 
Q 3513 744 3044 326 
Q 2575 -91 1722 -91 
Q 1428 -91 1123 -41 
Q 819 9 494 109 
L 494 744 
Q 775 591 1075 516 
Q 1375 441 1709 441 
Q 2250 441 2565 725 
Q 2881 1009 2881 1497 
Q 2881 1984 2565 2268 
Q 2250 2553 1709 2553 
Q 1456 2553 1204 2497 
Q 953 2441 691 2322 
L 691 4666 
z
" transform="scale(0.015625)"/>
       </defs>
       <use xlink:href="#DejaVuSans-35"/>
      </g>
     </g>
    </g>
    <g id="xtick_3">
     <g id="line2d_3">
      <g>
       <use xlink:href="#md58afdc134" x="214.986877" y="307.584" style="stroke: #000000; stroke-width: 0.8"/>
      </g>
     </g>
     <g id="text_3">
      <!-- 10 -->
      <g transform="translate(208.624377 322.182437) scale(0.1 -0.1)">
       <defs>
        <path id="DejaVuSans-31" d="M 794 531 
L 1825 531 
L 1825 4091 
L 703 3866 
L 703 4441 
L 1819 4666 
L 2450 4666 
L 2450 531 
L 3481 531 
L 3481 0 
L 794 0 
L 794 531 
z
" transform="scale(0.015625)"/>
       </defs>
       <use xlink:href="#DejaVuSans-31"/>
       <use xlink:href="#DejaVuSans-30" x="63.623047"/>
      </g>
     </g>
    </g>
    <g id="xtick_4">
     <g id="line2d_4">
      <g>
       <use xlink:href="#md58afdc134" x="285.563953" y="307.584" style="stroke: #000000; stroke-width: 0.8"/>
      </g>
     </g>
     <g id="text_4">
      <!-- 15 -->
      <g transform="translate(279.201453 322.182437) scale(0.1 -0.1)">
       <use xlink:href="#DejaVuSans-31"/>
       <use xlink:href="#DejaVuSans-35" x="63.623047"/>
      </g>
     </g>
    </g>
    <g id="xtick_5">
     <g id="line2d_5">
      <g>
       <use xlink:href="#md58afdc134" x="356.141028" y="307.584" style="stroke: #000000; stroke-width: 0.8"/>
      </g>
     </g>
     <g id="text_5">
      <!-- 20 -->
      <g transform="translate(349.778528 322.182437) scale(0.1 -0.1)">
       <defs>
        <path id="DejaVuSans-32" d="M 1228 531 
L 3431 531 
L 3431 0 
L 469 0 
L 469 531 
Q 828 903 1448 1529 
Q 2069 2156 2228 2338 
Q 2531 2678 2651 2914 
Q 2772 3150 2772 3378 
Q 2772 3750 2511 3984 
Q 2250 4219 1831 4219 
Q 1534 4219 1204 4116 
Q 875 4013 500 3803 
L 500 4441 
Q 881 4594 1212 4672 
Q 1544 4750 1819 4750 
Q 2544 4750 2975 4387 
Q 3406 4025 3406 3419 
Q 3406 3131 3298 2873 
Q 3191 2616 2906 2266 
Q 2828 2175 2409 1742 
Q 1991 1309 1228 531 
z
" transform="scale(0.015625)"/>
       </defs>
       <use xlink:href="#DejaVuSans-32"/>
       <use xlink:href="#DejaVuSans-30" x="63.623047"/>
      </g>
     </g>
    </g>
    <g id="text_6">
     <!-- times -->
     <g transform="translate(222.259219 335.860562) scale(0.1 -0.1)">
      <defs>
       <path id="DejaVuSans-74" d="M 1172 4494 
L 1172 3500 
L 2356 3500 
L 2356 3053 
L 1172 3053 
L 1172 1153 
Q 1172 725 1289 603 
Q 1406 481 1766 481 
L 2356 481 
L 2356 0 
L 1766 0 
Q 1100 0 847 248 
Q 594 497 594 1153 
L 594 3053 
L 172 3053 
L 172 3500 
L 594 3500 
L 594 4494 
L 1172 4494 
z
" transform="scale(0.015625)"/>
       <path id="DejaVuSans-69" d="M 603 3500 
L 1178 3500 
L 1178 0 
L 603 0 
L 603 3500 
z
M 603 4863 
L 1178 4863 
L 1178 4134 
L 603 4134 
L 603 4863 
z
" transform="scale(0.015625)"/>
       <path id="DejaVuSans-6d" d="M 3328 2828 
Q 3544 3216 3844 3400 
Q 4144 3584 4550 3584 
Q 5097 3584 5394 3201 
Q 5691 2819 5691 2113 
L 5691 0 
L 5113 0 
L 5113 2094 
Q 5113 2597 4934 2840 
Q 4756 3084 4391 3084 
Q 3944 3084 3684 2787 
Q 3425 2491 3425 1978 
L 3425 0 
L 2847 0 
L 2847 2094 
Q 2847 2600 2669 2842 
Q 2491 3084 2119 3084 
Q 1678 3084 1418 2786 
Q 1159 2488 1159 1978 
L 1159 0 
L 581 0 
L 581 3500 
L 1159 3500 
L 1159 2956 
Q 1356 3278 1631 3431 
Q 1906 3584 2284 3584 
Q 2666 3584 2933 3390 
Q 3200 3197 3328 2828 
z
" transform="scale(0.015625)"/>
       <path id="DejaVuSans-65" d="M 3597 1894 
L 3597 1613 
L 953 1613 
Q 991 1019 1311 708 
Q 1631 397 2203 397 
Q 2534 397 2845 478 
Q 3156 559 3463 722 
L 3463 178 
Q 3153 47 2828 -22 
Q 2503 -91 2169 -91 
Q 1331 -91 842 396 
Q 353 884 353 1716 
Q 353 2575 817 3079 
Q 1281 3584 2069 3584 
Q 2775 3584 3186 3129 
Q 3597 2675 3597 1894 
z
M 3022 2063 
Q 3016 2534 2758 2815 
Q 2500 3097 2075 3097 
Q 1594 3097 1305 2825 
Q 1016 2553 972 2059 
L 3022 2063 
z
" transform="scale(0.015625)"/>
       <path id="DejaVuSans-73" d="M 2834 3397 
L 2834 2853 
Q 2591 2978 2328 3040 
Q 2066 3103 1784 3103 
Q 1356 3103 1142 2972 
Q 928 2841 928 2578 
Q 928 2378 1081 2264 
Q 1234 2150 1697 2047 
L 1894 2003 
Q 2506 1872 2764 1633 
Q 3022 1394 3022 966 
Q 3022 478 2636 193 
Q 2250 -91 1575 -91 
Q 1294 -91 989 -36 
Q 684 19 347 128 
L 347 722 
Q 666 556 975 473 
Q 1284 391 1588 391 
Q 1994 391 2212 530 
Q 2431 669 2431 922 
Q 2431 1156 2273 1281 
Q 2116 1406 1581 1522 
L 1381 1569 
Q 847 1681 609 1914 
Q 372 2147 372 2553 
Q 372 3047 722 3315 
Q 1072 3584 1716 3584 
Q 2034 3584 2315 3537 
Q 2597 3491 2834 3397 
z
" transform="scale(0.015625)"/>
      </defs>
      <use xlink:href="#DejaVuSans-74"/>
      <use xlink:href="#DejaVuSans-69" x="39.208984"/>
      <use xlink:href="#DejaVuSans-6d" x="66.992188"/>
      <use xlink:href="#DejaVuSans-65" x="164.404297"/>
      <use xlink:href="#DejaVuSans-73" x="225.927734"/>
     </g>
    </g>
   </g>
   <g id="matplotlib.axis_2">
    <g id="ytick_1">
     <g id="line2d_6">
      <defs>
       <path id="m7dbafba9ee" d="M 0 0 
L -3.5 0 
" style="stroke: #000000; stroke-width: 0.8"/>
      </defs>
      <g>
       <use xlink:href="#m7dbafba9ee" x="57.6" y="295.488" style="stroke: #000000; stroke-width: 0.8"/>
      </g>
     </g>
     <g id="text_7">
      <!-- 0 -->
      <g transform="translate(44.2375 299.287219) scale(0.1 -0.1)">
       <use xlink:href="#DejaVuSans-30"/>
      </g>
     </g>
    </g>
    <g id="ytick_2">
     <g id="line2d_7">
      <g>
       <use xlink:href="#m7dbafba9ee" x="57.6" y="263.905755" style="stroke: #000000; stroke-width: 0.8"/>
      </g>
     </g>
     <g id="text_8">
      <!-- 1000 -->
      <g transform="translate(25.15 267.704973) scale(0.1 -0.1)">
       <use xlink:href="#DejaVuSans-31"/>
       <use xlink:href="#DejaVuSans-30" x="63.623047"/>
       <use xlink:href="#DejaVuSans-30" x="127.246094"/>
       <use xlink:href="#DejaVuSans-30" x="190.869141"/>
      </g>
     </g>
    </g>
    <g id="ytick_3">
     <g id="line2d_8">
      <g>
       <use xlink:href="#m7dbafba9ee" x="57.6" y="232.323509" style="stroke: #000000; stroke-width: 0.8"/>
      </g>
     </g>
     <g id="text_9">
      <!-- 2000 -->
      <g transform="translate(25.15 236.122728) scale(0.1 -0.1)">
       <use xlink:href="#DejaVuSans-32"/>
       <use xlink:href="#DejaVuSans-30" x="63.623047"/>
       <use xlink:href="#DejaVuSans-30" x="127.246094"/>
       <use xlink:href="#DejaVuSans-30" x="190.869141"/>
      </g>
     </g>
    </g>
    <g id="ytick_4">
     <g id="line2d_9">
      <g>
       <use xlink:href="#m7dbafba9ee" x="57.6" y="200.741264" style="stroke: #000000; stroke-width: 0.8"/>
      </g>
     </g>
     <g id="text_10">
      <!-- 3000 -->
      <g transform="translate(25.15 204.540482) scale(0.1 -0.1)">
       <defs>
        <path id="DejaVuSans-33" d="M 2597 2516 
Q 3050 2419 3304 2112 
Q 3559 1806 3559 1356 
Q 3559 666 3084 287 
Q 2609 -91 1734 -91 
Q 1441 -91 1130 -33 
Q 819 25 488 141 
L 488 750 
Q 750 597 1062 519 
Q 1375 441 1716 441 
Q 2309 441 2620 675 
Q 2931 909 2931 1356 
Q 2931 1769 2642 2001 
Q 2353 2234 1838 2234 
L 1294 2234 
L 1294 2753 
L 1863 2753 
Q 2328 2753 2575 2939 
Q 2822 3125 2822 3475 
Q 2822 3834 2567 4026 
Q 2313 4219 1838 4219 
Q 1578 4219 1281 4162 
Q 984 4106 628 3988 
L 628 4550 
Q 988 4650 1302 4700 
Q 1616 4750 1894 4750 
Q 2613 4750 3031 4423 
Q 3450 4097 3450 3541 
Q 3450 3153 3228 2886 
Q 3006 2619 2597 2516 
z
" transform="scale(0.015625)"/>
       </defs>
       <use xlink:href="#DejaVuSans-33"/>
       <use xlink:href="#DejaVuSans-30" x="63.623047"/>
       <use xlink:href="#DejaVuSans-30" x="127.246094"/>
       <use xlink:href="#DejaVuSans-30" x="190.869141"/>
      </g>
     </g>
    </g>
    <g id="ytick_5">
     <g id="line2d_10">
      <g>
       <use xlink:href="#m7dbafba9ee" x="57.6" y="169.159018" style="stroke: #000000; stroke-width: 0.8"/>
      </g>
     </g>
     <g id="text_11">
      <!-- 4000 -->
      <g transform="translate(25.15 172.958237) scale(0.1 -0.1)">
       <defs>
        <path id="DejaVuSans-34" d="M 2419 4116 
L 825 1625 
L 2419 1625 
L 2419 4116 
z
M 2253 4666 
L 3047 4666 
L 3047 1625 
L 3713 1625 
L 3713 1100 
L 3047 1100 
L 3047 0 
L 2419 0 
L 2419 1100 
L 313 1100 
L 313 1709 
L 2253 4666 
z
" transform="scale(0.015625)"/>
       </defs>
       <use xlink:href="#DejaVuSans-34"/>
       <use xlink:href="#DejaVuSans-30" x="63.623047"/>
       <use xlink:href="#DejaVuSans-30" x="127.246094"/>
       <use xlink:href="#DejaVuSans-30" x="190.869141"/>
      </g>
     </g>
    </g>
    <g id="ytick_6">
     <g id="line2d_11">
      <g>
       <use xlink:href="#m7dbafba9ee" x="57.6" y="137.576773" style="stroke: #000000; stroke-width: 0.8"/>
      </g>
     </g>
     <g id="text_12">
      <!-- 5000 -->
      <g transform="translate(25.15 141.375992) scale(0.1 -0.1)">
       <use xlink:href="#DejaVuSans-35"/>
       <use xlink:href="#DejaVuSans-30" x="63.623047"/>
       <use xlink:href="#DejaVuSans-30" x="127.246094"/>
       <use xlink:href="#DejaVuSans-30" x="190.869141"/>
      </g>
     </g>
    </g>
    <g id="ytick_7">
     <g id="line2d_12">
      <g>
       <use xlink:href="#m7dbafba9ee" x="57.6" y="105.994527" style="stroke: #000000; stroke-width: 0.8"/>
      </g>
     </g>
     <g id="text_13">
      <!-- 6000 -->
      <g transform="translate(25.15 109.793746) scale(0.1 -0.1)">
       <defs>
        <path id="DejaVuSans-36" d="M 2113 2584 
Q 1688 2584 1439 2293 
Q 1191 2003 1191 1497 
Q 1191 994 1439 701 
Q 1688 409 2113 409 
Q 2538 409 2786 701 
Q 3034 994 3034 1497 
Q 3034 2003 2786 2293 
Q 2538 2584 2113 2584 
z
M 3366 4563 
L 3366 3988 
Q 3128 4100 2886 4159 
Q 2644 4219 2406 4219 
Q 1781 4219 1451 3797 
Q 1122 3375 1075 2522 
Q 1259 2794 1537 2939 
Q 1816 3084 2150 3084 
Q 2853 3084 3261 2657 
Q 3669 2231 3669 1497 
Q 3669 778 3244 343 
Q 2819 -91 2113 -91 
Q 1303 -91 875 529 
Q 447 1150 447 2328 
Q 447 3434 972 4092 
Q 1497 4750 2381 4750 
Q 2619 4750 2861 4703 
Q 3103 4656 3366 4563 
z
" transform="scale(0.015625)"/>
       </defs>
       <use xlink:href="#DejaVuSans-36"/>
       <use xlink:href="#DejaVuSans-30" x="63.623047"/>
       <use xlink:href="#DejaVuSans-30" x="127.246094"/>
       <use xlink:href="#DejaVuSans-30" x="190.869141"/>
      </g>
     </g>
    </g>
    <g id="ytick_8">
     <g id="line2d_13">
      <g>
       <use xlink:href="#m7dbafba9ee" x="57.6" y="74.412282" style="stroke: #000000; stroke-width: 0.8"/>
      </g>
     </g>
     <g id="text_14">
      <!-- 7000 -->
      <g transform="translate(25.15 78.211501) scale(0.1 -0.1)">
       <defs>
        <path id="DejaVuSans-37" d="M 525 4666 
L 3525 4666 
L 3525 4397 
L 1831 0 
L 1172 0 
L 2766 4134 
L 525 4134 
L 525 4666 
z
" transform="scale(0.015625)"/>
       </defs>
       <use xlink:href="#DejaVuSans-37"/>
       <use xlink:href="#DejaVuSans-30" x="63.623047"/>
       <use xlink:href="#DejaVuSans-30" x="127.246094"/>
       <use xlink:href="#DejaVuSans-30" x="190.869141"/>
      </g>
     </g>
    </g>
    <g id="ytick_9">
     <g id="line2d_14">
      <g>
       <use xlink:href="#m7dbafba9ee" x="57.6" y="42.830037" style="stroke: #000000; stroke-width: 0.8"/>
      </g>
     </g>
     <g id="text_15">
      <!-- 8000 -->
      <g transform="translate(25.15 46.629255) scale(0.1 -0.1)">
       <defs>
        <path id="DejaVuSans-38" d="M 2034 2216 
Q 1584 2216 1326 1975 
Q 1069 1734 1069 1313 
Q 1069 891 1326 650 
Q 1584 409 2034 409 
Q 2484 409 2743 651 
Q 3003 894 3003 1313 
Q 3003 1734 2745 1975 
Q 2488 2216 2034 2216 
z
M 1403 2484 
Q 997 2584 770 2862 
Q 544 3141 544 3541 
Q 544 4100 942 4425 
Q 1341 4750 2034 4750 
Q 2731 4750 3128 4425 
Q 3525 4100 3525 3541 
Q 3525 3141 3298 2862 
Q 3072 2584 2669 2484 
Q 3125 2378 3379 2068 
Q 3634 1759 3634 1313 
Q 3634 634 3220 271 
Q 2806 -91 2034 -91 
Q 1263 -91 848 271 
Q 434 634 434 1313 
Q 434 1759 690 2068 
Q 947 2378 1403 2484 
z
M 1172 3481 
Q 1172 3119 1398 2916 
Q 1625 2713 2034 2713 
Q 2441 2713 2670 2916 
Q 2900 3119 2900 3481 
Q 2900 3844 2670 4047 
Q 2441 4250 2034 4250 
Q 1625 4250 1398 4047 
Q 1172 3844 1172 3481 
z
" transform="scale(0.015625)"/>
       </defs>
       <use xlink:href="#DejaVuSans-38"/>
       <use xlink:href="#DejaVuSans-30" x="63.623047"/>
       <use xlink:href="#DejaVuSans-30" x="127.246094"/>
       <use xlink:href="#DejaVuSans-30" x="190.869141"/>
      </g>
     </g>
    </g>
    <g id="text_16">
     <!-- score -->
     <g transform="translate(19.070312 187.960813) rotate(-90) scale(0.1 -0.1)">
      <defs>
       <path id="DejaVuSans-63" d="M 3122 3366 
L 3122 2828 
Q 2878 2963 2633 3030 
Q 2388 3097 2138 3097 
Q 1578 3097 1268 2742 
Q 959 2388 959 1747 
Q 959 1106 1268 751 
Q 1578 397 2138 397 
Q 2388 397 2633 464 
Q 2878 531 3122 666 
L 3122 134 
Q 2881 22 2623 -34 
Q 2366 -91 2075 -91 
Q 1284 -91 818 406 
Q 353 903 353 1747 
Q 353 2603 823 3093 
Q 1294 3584 2113 3584 
Q 2378 3584 2631 3529 
Q 2884 3475 3122 3366 
z
" transform="scale(0.015625)"/>
       <path id="DejaVuSans-6f" d="M 1959 3097 
Q 1497 3097 1228 2736 
Q 959 2375 959 1747 
Q 959 1119 1226 758 
Q 1494 397 1959 397 
Q 2419 397 2687 759 
Q 2956 1122 2956 1747 
Q 2956 2369 2687 2733 
Q 2419 3097 1959 3097 
z
M 1959 3584 
Q 2709 3584 3137 3096 
Q 3566 2609 3566 1747 
Q 3566 888 3137 398 
Q 2709 -91 1959 -91 
Q 1206 -91 779 398 
Q 353 888 353 1747 
Q 353 2609 779 3096 
Q 1206 3584 1959 3584 
z
" transform="scale(0.015625)"/>
       <path id="DejaVuSans-72" d="M 2631 2963 
Q 2534 3019 2420 3045 
Q 2306 3072 2169 3072 
Q 1681 3072 1420 2755 
Q 1159 2438 1159 1844 
L 1159 0 
L 581 0 
L 581 3500 
L 1159 3500 
L 1159 2956 
Q 1341 3275 1631 3429 
Q 1922 3584 2338 3584 
Q 2397 3584 2469 3576 
Q 2541 3569 2628 3553 
L 2631 2963 
z
" transform="scale(0.015625)"/>
      </defs>
      <use xlink:href="#DejaVuSans-73"/>
      <use xlink:href="#DejaVuSans-63" x="52.099609"/>
      <use xlink:href="#DejaVuSans-6f" x="107.080078"/>
      <use xlink:href="#DejaVuSans-72" x="168.261719"/>
      <use xlink:href="#DejaVuSans-65" x="207.125"/>
     </g>
    </g>
   </g>
   <g id="line2d_15">
    <path d="M 73.832727 295.488 
L 87.948142 292.329775 
L 102.063557 286.013326 
L 116.178972 273.380428 
L 130.294387 271.801316 
L 144.409802 270.380115 
L 158.525217 267.22189 
L 172.640632 266.274423 
L 186.756047 264.695311 
L 200.871462 263.116198 
L 214.986877 261.537086 
L 229.102292 255.220637 
L 243.217708 252.125577 
L 257.333123 248.967352 
L 271.448538 246.440773 
L 285.563953 245.651217 
L 299.679368 243.124637 
L 313.794783 241.545525 
L 327.910198 239.966413 
L 342.025613 238.3873 
L 356.141028 228.912627 
L 370.256443 227.333514 
L 384.371858 224.17529 
L 398.487273 221.964533 
" clip-path="url(#p693d573b0a)" style="fill: none; stroke: #1f77b4; stroke-width: 1.5; stroke-linecap: square"/>
    <defs>
     <path id="mb39b230263" d="M 0 3 
C 0.795609 3 1.55874 2.683901 2.12132 2.12132 
C 2.683901 1.55874 3 0.795609 3 0 
C 3 -0.795609 2.683901 -1.55874 2.12132 -2.12132 
C 1.55874 -2.683901 0.795609 -3 0 -3 
C -0.795609 -3 -1.55874 -2.683901 -2.12132 -2.12132 
C -2.683901 -1.55874 -3 -0.795609 -3 0 
C -3 0.795609 -2.683901 1.55874 -2.12132 2.12132 
C -1.55874 2.683901 -0.795609 3 0 3 
z
" style="stroke: #1f77b4"/>
    </defs>
    <g clip-path="url(#p693d573b0a)">
     <use xlink:href="#mb39b230263" x="73.832727" y="295.488" style="fill: #1f77b4; stroke: #1f77b4"/>
     <use xlink:href="#mb39b230263" x="87.948142" y="292.329775" style="fill: #1f77b4; stroke: #1f77b4"/>
     <use xlink:href="#mb39b230263" x="102.063557" y="286.013326" style="fill: #1f77b4; stroke: #1f77b4"/>
     <use xlink:href="#mb39b230263" x="116.178972" y="273.380428" style="fill: #1f77b4; stroke: #1f77b4"/>
     <use xlink:href="#mb39b230263" x="130.294387" y="271.801316" style="fill: #1f77b4; stroke: #1f77b4"/>
     <use xlink:href="#mb39b230263" x="144.409802" y="270.380115" style="fill: #1f77b4; stroke: #1f77b4"/>
     <use xlink:href="#mb39b230263" x="158.525217" y="267.22189" style="fill: #1f77b4; stroke: #1f77b4"/>
     <use xlink:href="#mb39b230263" x="172.640632" y="266.274423" style="fill: #1f77b4; stroke: #1f77b4"/>
     <use xlink:href="#mb39b230263" x="186.756047" y="264.695311" style="fill: #1f77b4; stroke: #1f77b4"/>
     <use xlink:href="#mb39b230263" x="200.871462" y="263.116198" style="fill: #1f77b4; stroke: #1f77b4"/>
     <use xlink:href="#mb39b230263" x="214.986877" y="261.537086" style="fill: #1f77b4; stroke: #1f77b4"/>
     <use xlink:href="#mb39b230263" x="229.102292" y="255.220637" style="fill: #1f77b4; stroke: #1f77b4"/>
     <use xlink:href="#mb39b230263" x="243.217708" y="252.125577" style="fill: #1f77b4; stroke: #1f77b4"/>
     <use xlink:href="#mb39b230263" x="257.333123" y="248.967352" style="fill: #1f77b4; stroke: #1f77b4"/>
     <use xlink:href="#mb39b230263" x="271.448538" y="246.440773" style="fill: #1f77b4; stroke: #1f77b4"/>
     <use xlink:href="#mb39b230263" x="285.563953" y="245.651217" style="fill: #1f77b4; stroke: #1f77b4"/>
     <use xlink:href="#mb39b230263" x="299.679368" y="243.124637" style="fill: #1f77b4; stroke: #1f77b4"/>
     <use xlink:href="#mb39b230263" x="313.794783" y="241.545525" style="fill: #1f77b4; stroke: #1f77b4"/>
     <use xlink:href="#mb39b230263" x="327.910198" y="239.966413" style="fill: #1f77b4; stroke: #1f77b4"/>
     <use xlink:href="#mb39b230263" x="342.025613" y="238.3873" style="fill: #1f77b4; stroke: #1f77b4"/>
     <use xlink:href="#mb39b230263" x="356.141028" y="228.912627" style="fill: #1f77b4; stroke: #1f77b4"/>
     <use xlink:href="#mb39b230263" x="370.256443" y="227.333514" style="fill: #1f77b4; stroke: #1f77b4"/>
     <use xlink:href="#mb39b230263" x="384.371858" y="224.17529" style="fill: #1f77b4; stroke: #1f77b4"/>
     <use xlink:href="#mb39b230263" x="398.487273" y="221.964533" style="fill: #1f77b4; stroke: #1f77b4"/>
    </g>
   </g>
   <g id="line2d_16">
    <path d="M 73.832727 295.488 
L 87.948142 293.908888 
L 102.063557 290.719081 
L 116.178972 289.771614 
L 130.294387 288.192501 
L 144.409802 285.034277 
L 158.525217 281.876052 
L 172.640632 272.401379 
L 186.756047 269.243154 
L 200.871462 266.08493 
L 214.986877 264.189995 
L 229.102292 259.642151 
L 243.217708 257.115572 
L 257.333123 252.378235 
L 271.448538 249.851655 
" clip-path="url(#p693d573b0a)" style="fill: none; stroke: #ff7f0e; stroke-width: 1.5; stroke-linecap: square"/>
    <defs>
     <path id="me1e9f2cb14" d="M 0 3 
C 0.795609 3 1.55874 2.683901 2.12132 2.12132 
C 2.683901 1.55874 3 0.795609 3 0 
C 3 -0.795609 2.683901 -1.55874 2.12132 -2.12132 
C 1.55874 -2.683901 0.795609 -3 0 -3 
C -0.795609 -3 -1.55874 -2.683901 -2.12132 -2.12132 
C -2.683901 -1.55874 -3 -0.795609 -3 0 
C -3 0.795609 -2.683901 1.55874 -2.12132 2.12132 
C -1.55874 2.683901 -0.795609 3 0 3 
z
" style="stroke: #ff7f0e"/>
    </defs>
    <g clip-path="url(#p693d573b0a)">
     <use xlink:href="#me1e9f2cb14" x="73.832727" y="295.488" style="fill: #ff7f0e; stroke: #ff7f0e"/>
     <use xlink:href="#me1e9f2cb14" x="87.948142" y="293.908888" style="fill: #ff7f0e; stroke: #ff7f0e"/>
     <use xlink:href="#me1e9f2cb14" x="102.063557" y="290.719081" style="fill: #ff7f0e; stroke: #ff7f0e"/>
     <use xlink:href="#me1e9f2cb14" x="116.178972" y="289.771614" style="fill: #ff7f0e; stroke: #ff7f0e"/>
     <use xlink:href="#me1e9f2cb14" x="130.294387" y="288.192501" style="fill: #ff7f0e; stroke: #ff7f0e"/>
     <use xlink:href="#me1e9f2cb14" x="144.409802" y="285.034277" style="fill: #ff7f0e; stroke: #ff7f0e"/>
     <use xlink:href="#me1e9f2cb14" x="158.525217" y="281.876052" style="fill: #ff7f0e; stroke: #ff7f0e"/>
     <use xlink:href="#me1e9f2cb14" x="172.640632" y="272.401379" style="fill: #ff7f0e; stroke: #ff7f0e"/>
     <use xlink:href="#me1e9f2cb14" x="186.756047" y="269.243154" style="fill: #ff7f0e; stroke: #ff7f0e"/>
     <use xlink:href="#me1e9f2cb14" x="200.871462" y="266.08493" style="fill: #ff7f0e; stroke: #ff7f0e"/>
     <use xlink:href="#me1e9f2cb14" x="214.986877" y="264.189995" style="fill: #ff7f0e; stroke: #ff7f0e"/>
     <use xlink:href="#me1e9f2cb14" x="229.102292" y="259.642151" style="fill: #ff7f0e; stroke: #ff7f0e"/>
     <use xlink:href="#me1e9f2cb14" x="243.217708" y="257.115572" style="fill: #ff7f0e; stroke: #ff7f0e"/>
     <use xlink:href="#me1e9f2cb14" x="257.333123" y="252.378235" style="fill: #ff7f0e; stroke: #ff7f0e"/>
     <use xlink:href="#me1e9f2cb14" x="271.448538" y="249.851655" style="fill: #ff7f0e; stroke: #ff7f0e"/>
    </g>
   </g>
   <g id="line2d_17">
    <path d="M 73.832727 295.488 
L 87.948142 292.329775 
L 102.063557 290.119018 
L 116.178972 286.960794 
L 130.294387 285.381681 
L 144.409802 282.223457 
L 158.525217 277.296627 
L 172.640632 275.085869 
L 186.756047 264.979551 
L 200.871462 263.400439 
L 214.986877 261.505504 
L 229.102292 258.347279 
L 243.217708 255.568042 
L 257.333123 240.092742 
L 271.448538 235.98705 
L 285.563953 226.512376 
L 299.679368 224.933264 
L 313.794783 223.354151 
" clip-path="url(#p693d573b0a)" style="fill: none; stroke: #2ca02c; stroke-width: 1.5; stroke-linecap: square"/>
    <defs>
     <path id="m0f37308177" d="M 0 3 
C 0.795609 3 1.55874 2.683901 2.12132 2.12132 
C 2.683901 1.55874 3 0.795609 3 0 
C 3 -0.795609 2.683901 -1.55874 2.12132 -2.12132 
C 1.55874 -2.683901 0.795609 -3 0 -3 
C -0.795609 -3 -1.55874 -2.683901 -2.12132 -2.12132 
C -2.683901 -1.55874 -3 -0.795609 -3 0 
C -3 0.795609 -2.683901 1.55874 -2.12132 2.12132 
C -1.55874 2.683901 -0.795609 3 0 3 
z
" style="stroke: #2ca02c"/>
    </defs>
    <g clip-path="url(#p693d573b0a)">
     <use xlink:href="#m0f37308177" x="73.832727" y="295.488" style="fill: #2ca02c; stroke: #2ca02c"/>
     <use xlink:href="#m0f37308177" x="87.948142" y="292.329775" style="fill: #2ca02c; stroke: #2ca02c"/>
     <use xlink:href="#m0f37308177" x="102.063557" y="290.119018" style="fill: #2ca02c; stroke: #2ca02c"/>
     <use xlink:href="#m0f37308177" x="116.178972" y="286.960794" style="fill: #2ca02c; stroke: #2ca02c"/>
     <use xlink:href="#m0f37308177" x="130.294387" y="285.381681" style="fill: #2ca02c; stroke: #2ca02c"/>
     <use xlink:href="#m0f37308177" x="144.409802" y="282.223457" style="fill: #2ca02c; stroke: #2ca02c"/>
     <use xlink:href="#m0f37308177" x="158.525217" y="277.296627" style="fill: #2ca02c; stroke: #2ca02c"/>
     <use xlink:href="#m0f37308177" x="172.640632" y="275.085869" style="fill: #2ca02c; stroke: #2ca02c"/>
     <use xlink:href="#m0f37308177" x="186.756047" y="264.979551" style="fill: #2ca02c; stroke: #2ca02c"/>
     <use xlink:href="#m0f37308177" x="200.871462" y="263.400439" style="fill: #2ca02c; stroke: #2ca02c"/>
     <use xlink:href="#m0f37308177" x="214.986877" y="261.505504" style="fill: #2ca02c; stroke: #2ca02c"/>
     <use xlink:href="#m0f37308177" x="229.102292" y="258.347279" style="fill: #2ca02c; stroke: #2ca02c"/>
     <use xlink:href="#m0f37308177" x="243.217708" y="255.568042" style="fill: #2ca02c; stroke: #2ca02c"/>
     <use xlink:href="#m0f37308177" x="257.333123" y="240.092742" style="fill: #2ca02c; stroke: #2ca02c"/>
     <use xlink:href="#m0f37308177" x="271.448538" y="235.98705" style="fill: #2ca02c; stroke: #2ca02c"/>
     <use xlink:href="#m0f37308177" x="285.563953" y="226.512376" style="fill: #2ca02c; stroke: #2ca02c"/>
     <use xlink:href="#m0f37308177" x="299.679368" y="224.933264" style="fill: #2ca02c; stroke: #2ca02c"/>
     <use xlink:href="#m0f37308177" x="313.794783" y="223.354151" style="fill: #2ca02c; stroke: #2ca02c"/>
    </g>
   </g>
   <g id="line2d_18">
    <path d="M 73.832727 295.488 
L 87.948142 293.277243 
L 102.063557 283.802569 
L 116.178972 277.48612 
L 130.294387 182.739384 
L 144.409802 178.002047 
L 158.525217 175.475467 
L 172.640632 172.00142 
L 186.756047 168.843196 
L 200.871462 166.948261 
L 214.986877 163.790037 
L 229.102292 147.998914 
L 243.217708 144.840689 
L 257.333123 143.261577 
L 271.448538 140.419175 
L 285.563953 108.83693 
L 299.679368 77.254684 
L 313.794783 69.359123 
L 327.910198 66.832543 
L 342.025613 55.778757 
L 356.141028 53.568 
" clip-path="url(#p693d573b0a)" style="fill: none; stroke: #d62728; stroke-width: 1.5; stroke-linecap: square"/>
    <defs>
     <path id="m2caefeecb5" d="M 0 3 
C 0.795609 3 1.55874 2.683901 2.12132 2.12132 
C 2.683901 1.55874 3 0.795609 3 0 
C 3 -0.795609 2.683901 -1.55874 2.12132 -2.12132 
C 1.55874 -2.683901 0.795609 -3 0 -3 
C -0.795609 -3 -1.55874 -2.683901 -2.12132 -2.12132 
C -2.683901 -1.55874 -3 -0.795609 -3 0 
C -3 0.795609 -2.683901 1.55874 -2.12132 2.12132 
C -1.55874 2.683901 -0.795609 3 0 3 
z
" style="stroke: #d62728"/>
    </defs>
    <g clip-path="url(#p693d573b0a)">
     <use xlink:href="#m2caefeecb5" x="73.832727" y="295.488" style="fill: #d62728; stroke: #d62728"/>
     <use xlink:href="#m2caefeecb5" x="87.948142" y="293.277243" style="fill: #d62728; stroke: #d62728"/>
     <use xlink:href="#m2caefeecb5" x="102.063557" y="283.802569" style="fill: #d62728; stroke: #d62728"/>
     <use xlink:href="#m2caefeecb5" x="116.178972" y="277.48612" style="fill: #d62728; stroke: #d62728"/>
     <use xlink:href="#m2caefeecb5" x="130.294387" y="182.739384" style="fill: #d62728; stroke: #d62728"/>
     <use xlink:href="#m2caefeecb5" x="144.409802" y="178.002047" style="fill: #d62728; stroke: #d62728"/>
     <use xlink:href="#m2caefeecb5" x="158.525217" y="175.475467" style="fill: #d62728; stroke: #d62728"/>
     <use xlink:href="#m2caefeecb5" x="172.640632" y="172.00142" style="fill: #d62728; stroke: #d62728"/>
     <use xlink:href="#m2caefeecb5" x="186.756047" y="168.843196" style="fill: #d62728; stroke: #d62728"/>
     <use xlink:href="#m2caefeecb5" x="200.871462" y="166.948261" style="fill: #d62728; stroke: #d62728"/>
     <use xlink:href="#m2caefeecb5" x="214.986877" y="163.790037" style="fill: #d62728; stroke: #d62728"/>
     <use xlink:href="#m2caefeecb5" x="229.102292" y="147.998914" style="fill: #d62728; stroke: #d62728"/>
     <use xlink:href="#m2caefeecb5" x="243.217708" y="144.840689" style="fill: #d62728; stroke: #d62728"/>
     <use xlink:href="#m2caefeecb5" x="257.333123" y="143.261577" style="fill: #d62728; stroke: #d62728"/>
     <use xlink:href="#m2caefeecb5" x="271.448538" y="140.419175" style="fill: #d62728; stroke: #d62728"/>
     <use xlink:href="#m2caefeecb5" x="285.563953" y="108.83693" style="fill: #d62728; stroke: #d62728"/>
     <use xlink:href="#m2caefeecb5" x="299.679368" y="77.254684" style="fill: #d62728; stroke: #d62728"/>
     <use xlink:href="#m2caefeecb5" x="313.794783" y="69.359123" style="fill: #d62728; stroke: #d62728"/>
     <use xlink:href="#m2caefeecb5" x="327.910198" y="66.832543" style="fill: #d62728; stroke: #d62728"/>
     <use xlink:href="#m2caefeecb5" x="342.025613" y="55.778757" style="fill: #d62728; stroke: #d62728"/>
     <use xlink:href="#m2caefeecb5" x="356.141028" y="53.568" style="fill: #d62728; stroke: #d62728"/>
    </g>
   </g>
   <g id="line2d_19">
    <path d="M 73.832727 295.488 
L 87.948142 282.855102 
L 102.063557 257.589305 
L 116.178972 256.957661 
L 130.294387 231.691864 
L 144.409802 206.426068 
L 158.525217 200.109619 
L 172.640632 194.424815 
L 186.756047 169.159018 
L 200.871462 162.210924 
L 214.986877 159.0527 
L 229.102292 149.578026 
L 243.217708 147.998914 
L 257.333123 122.733117 
L 271.448538 113.258444 
L 285.563953 110.100219 
L 299.679368 106.941995 
L 313.794783 105.362883 
L 327.910198 103.78377 
L 342.025613 102.204658 
L 356.141028 99.993901 
L 370.256443 95.256564 
L 384.371858 69.990768 
" clip-path="url(#p693d573b0a)" style="fill: none; stroke: #9467bd; stroke-width: 1.5; stroke-linecap: square"/>
    <defs>
     <path id="m94ddba06a8" d="M 0 3 
C 0.795609 3 1.55874 2.683901 2.12132 2.12132 
C 2.683901 1.55874 3 0.795609 3 0 
C 3 -0.795609 2.683901 -1.55874 2.12132 -2.12132 
C 1.55874 -2.683901 0.795609 -3 0 -3 
C -0.795609 -3 -1.55874 -2.683901 -2.12132 -2.12132 
C -2.683901 -1.55874 -3 -0.795609 -3 0 
C -3 0.795609 -2.683901 1.55874 -2.12132 2.12132 
C -1.55874 2.683901 -0.795609 3 0 3 
z
" style="stroke: #9467bd"/>
    </defs>
    <g clip-path="url(#p693d573b0a)">
     <use xlink:href="#m94ddba06a8" x="73.832727" y="295.488" style="fill: #9467bd; stroke: #9467bd"/>
     <use xlink:href="#m94ddba06a8" x="87.948142" y="282.855102" style="fill: #9467bd; stroke: #9467bd"/>
     <use xlink:href="#m94ddba06a8" x="102.063557" y="257.589305" style="fill: #9467bd; stroke: #9467bd"/>
     <use xlink:href="#m94ddba06a8" x="116.178972" y="256.957661" style="fill: #9467bd; stroke: #9467bd"/>
     <use xlink:href="#m94ddba06a8" x="130.294387" y="231.691864" style="fill: #9467bd; stroke: #9467bd"/>
     <use xlink:href="#m94ddba06a8" x="144.409802" y="206.426068" style="fill: #9467bd; stroke: #9467bd"/>
     <use xlink:href="#m94ddba06a8" x="158.525217" y="200.109619" style="fill: #9467bd; stroke: #9467bd"/>
     <use xlink:href="#m94ddba06a8" x="172.640632" y="194.424815" style="fill: #9467bd; stroke: #9467bd"/>
     <use xlink:href="#m94ddba06a8" x="186.756047" y="169.159018" style="fill: #9467bd; stroke: #9467bd"/>
     <use xlink:href="#m94ddba06a8" x="200.871462" y="162.210924" style="fill: #9467bd; stroke: #9467bd"/>
     <use xlink:href="#m94ddba06a8" x="214.986877" y="159.0527" style="fill: #9467bd; stroke: #9467bd"/>
     <use xlink:href="#m94ddba06a8" x="229.102292" y="149.578026" style="fill: #9467bd; stroke: #9467bd"/>
     <use xlink:href="#m94ddba06a8" x="243.217708" y="147.998914" style="fill: #9467bd; stroke: #9467bd"/>
     <use xlink:href="#m94ddba06a8" x="257.333123" y="122.733117" style="fill: #9467bd; stroke: #9467bd"/>
     <use xlink:href="#m94ddba06a8" x="271.448538" y="113.258444" style="fill: #9467bd; stroke: #9467bd"/>
     <use xlink:href="#m94ddba06a8" x="285.563953" y="110.100219" style="fill: #9467bd; stroke: #9467bd"/>
     <use xlink:href="#m94ddba06a8" x="299.679368" y="106.941995" style="fill: #9467bd; stroke: #9467bd"/>
     <use xlink:href="#m94ddba06a8" x="313.794783" y="105.362883" style="fill: #9467bd; stroke: #9467bd"/>
     <use xlink:href="#m94ddba06a8" x="327.910198" y="103.78377" style="fill: #9467bd; stroke: #9467bd"/>
     <use xlink:href="#m94ddba06a8" x="342.025613" y="102.204658" style="fill: #9467bd; stroke: #9467bd"/>
     <use xlink:href="#m94ddba06a8" x="356.141028" y="99.993901" style="fill: #9467bd; stroke: #9467bd"/>
     <use xlink:href="#m94ddba06a8" x="370.256443" y="95.256564" style="fill: #9467bd; stroke: #9467bd"/>
     <use xlink:href="#m94ddba06a8" x="384.371858" y="69.990768" style="fill: #9467bd; stroke: #9467bd"/>
    </g>
   </g>
   <g id="line2d_20">
    <path d="M 73.832727 295.488 
L 87.948142 265.800689 
L 102.063557 262.642465 
L 116.178972 253.167791 
L 130.294387 221.585546 
L 144.409802 218.427321 
L 158.525217 216.848209 
L 172.640632 204.215311 
L 186.756047 188.424188 
L 200.871462 182.107739 
L 214.986877 180.844449 
L 229.102292 161.895102 
L 243.217708 142.945755 
L 257.333123 140.419175 
" clip-path="url(#p693d573b0a)" style="fill: none; stroke: #8c564b; stroke-width: 1.5; stroke-linecap: square"/>
    <defs>
     <path id="m6b52e30abf" d="M 0 3 
C 0.795609 3 1.55874 2.683901 2.12132 2.12132 
C 2.683901 1.55874 3 0.795609 3 0 
C 3 -0.795609 2.683901 -1.55874 2.12132 -2.12132 
C 1.55874 -2.683901 0.795609 -3 0 -3 
C -0.795609 -3 -1.55874 -2.683901 -2.12132 -2.12132 
C -2.683901 -1.55874 -3 -0.795609 -3 0 
C -3 0.795609 -2.683901 1.55874 -2.12132 2.12132 
C -1.55874 2.683901 -0.795609 3 0 3 
z
" style="stroke: #8c564b"/>
    </defs>
    <g clip-path="url(#p693d573b0a)">
     <use xlink:href="#m6b52e30abf" x="73.832727" y="295.488" style="fill: #8c564b; stroke: #8c564b"/>
     <use xlink:href="#m6b52e30abf" x="87.948142" y="265.800689" style="fill: #8c564b; stroke: #8c564b"/>
     <use xlink:href="#m6b52e30abf" x="102.063557" y="262.642465" style="fill: #8c564b; stroke: #8c564b"/>
     <use xlink:href="#m6b52e30abf" x="116.178972" y="253.167791" style="fill: #8c564b; stroke: #8c564b"/>
     <use xlink:href="#m6b52e30abf" x="130.294387" y="221.585546" style="fill: #8c564b; stroke: #8c564b"/>
     <use xlink:href="#m6b52e30abf" x="144.409802" y="218.427321" style="fill: #8c564b; stroke: #8c564b"/>
     <use xlink:href="#m6b52e30abf" x="158.525217" y="216.848209" style="fill: #8c564b; stroke: #8c564b"/>
     <use xlink:href="#m6b52e30abf" x="172.640632" y="204.215311" style="fill: #8c564b; stroke: #8c564b"/>
     <use xlink:href="#m6b52e30abf" x="186.756047" y="188.424188" style="fill: #8c564b; stroke: #8c564b"/>
     <use xlink:href="#m6b52e30abf" x="200.871462" y="182.107739" style="fill: #8c564b; stroke: #8c564b"/>
     <use xlink:href="#m6b52e30abf" x="214.986877" y="180.844449" style="fill: #8c564b; stroke: #8c564b"/>
     <use xlink:href="#m6b52e30abf" x="229.102292" y="161.895102" style="fill: #8c564b; stroke: #8c564b"/>
     <use xlink:href="#m6b52e30abf" x="243.217708" y="142.945755" style="fill: #8c564b; stroke: #8c564b"/>
     <use xlink:href="#m6b52e30abf" x="257.333123" y="140.419175" style="fill: #8c564b; stroke: #8c564b"/>
    </g>
   </g>
   <g id="line2d_21">
    <path d="M 73.832727 295.488 
L 87.948142 292.329775 
L 102.063557 290.750663 
L 116.178972 281.27599 
L 130.294387 280.486433 
L 144.409802 278.717828 
L 158.525217 267.979864 
L 172.640632 258.505191 
L 186.756047 255.662789 
L 200.871462 252.504564 
L 214.986877 249.346339 
L 229.102292 247.767227 
L 243.217708 247.356658 
" clip-path="url(#p693d573b0a)" style="fill: none; stroke: #e377c2; stroke-width: 1.5; stroke-linecap: square"/>
    <defs>
     <path id="m63973620b5" d="M 0 3 
C 0.795609 3 1.55874 2.683901 2.12132 2.12132 
C 2.683901 1.55874 3 0.795609 3 0 
C 3 -0.795609 2.683901 -1.55874 2.12132 -2.12132 
C 1.55874 -2.683901 0.795609 -3 0 -3 
C -0.795609 -3 -1.55874 -2.683901 -2.12132 -2.12132 
C -2.683901 -1.55874 -3 -0.795609 -3 0 
C -3 0.795609 -2.683901 1.55874 -2.12132 2.12132 
C -1.55874 2.683901 -0.795609 3 0 3 
z
" style="stroke: #e377c2"/>
    </defs>
    <g clip-path="url(#p693d573b0a)">
     <use xlink:href="#m63973620b5" x="73.832727" y="295.488" style="fill: #e377c2; stroke: #e377c2"/>
     <use xlink:href="#m63973620b5" x="87.948142" y="292.329775" style="fill: #e377c2; stroke: #e377c2"/>
     <use xlink:href="#m63973620b5" x="102.063557" y="290.750663" style="fill: #e377c2; stroke: #e377c2"/>
     <use xlink:href="#m63973620b5" x="116.178972" y="281.27599" style="fill: #e377c2; stroke: #e377c2"/>
     <use xlink:href="#m63973620b5" x="130.294387" y="280.486433" style="fill: #e377c2; stroke: #e377c2"/>
     <use xlink:href="#m63973620b5" x="144.409802" y="278.717828" style="fill: #e377c2; stroke: #e377c2"/>
     <use xlink:href="#m63973620b5" x="158.525217" y="267.979864" style="fill: #e377c2; stroke: #e377c2"/>
     <use xlink:href="#m63973620b5" x="172.640632" y="258.505191" style="fill: #e377c2; stroke: #e377c2"/>
     <use xlink:href="#m63973620b5" x="186.756047" y="255.662789" style="fill: #e377c2; stroke: #e377c2"/>
     <use xlink:href="#m63973620b5" x="200.871462" y="252.504564" style="fill: #e377c2; stroke: #e377c2"/>
     <use xlink:href="#m63973620b5" x="214.986877" y="249.346339" style="fill: #e377c2; stroke: #e377c2"/>
     <use xlink:href="#m63973620b5" x="229.102292" y="247.767227" style="fill: #e377c2; stroke: #e377c2"/>
     <use xlink:href="#m63973620b5" x="243.217708" y="247.356658" style="fill: #e377c2; stroke: #e377c2"/>
    </g>
   </g>
   <g id="line2d_22">
    <path d="M 73.832727 295.488 
L 87.948142 289.171551 
L 102.063557 286.013326 
L 116.178972 278.117765 
L 130.294387 271.801316 
L 144.409802 256.010193 
L 158.525217 253.104627 
L 172.640632 249.946402 
L 186.756047 246.882924 
L 200.871462 237.408251 
L 214.986877 232.670914 
L 229.102292 231.028637 
" clip-path="url(#p693d573b0a)" style="fill: none; stroke: #7f7f7f; stroke-width: 1.5; stroke-linecap: square"/>
    <defs>
     <path id="m5eeb13bf4e" d="M 0 3 
C 0.795609 3 1.55874 2.683901 2.12132 2.12132 
C 2.683901 1.55874 3 0.795609 3 0 
C 3 -0.795609 2.683901 -1.55874 2.12132 -2.12132 
C 1.55874 -2.683901 0.795609 -3 0 -3 
C -0.795609 -3 -1.55874 -2.683901 -2.12132 -2.12132 
C -2.683901 -1.55874 -3 -0.795609 -3 0 
C -3 0.795609 -2.683901 1.55874 -2.12132 2.12132 
C -1.55874 2.683901 -0.795609 3 0 3 
z
" style="stroke: #7f7f7f"/>
    </defs>
    <g clip-path="url(#p693d573b0a)">
     <use xlink:href="#m5eeb13bf4e" x="73.832727" y="295.488" style="fill: #7f7f7f; stroke: #7f7f7f"/>
     <use xlink:href="#m5eeb13bf4e" x="87.948142" y="289.171551" style="fill: #7f7f7f; stroke: #7f7f7f"/>
     <use xlink:href="#m5eeb13bf4e" x="102.063557" y="286.013326" style="fill: #7f7f7f; stroke: #7f7f7f"/>
     <use xlink:href="#m5eeb13bf4e" x="116.178972" y="278.117765" style="fill: #7f7f7f; stroke: #7f7f7f"/>
     <use xlink:href="#m5eeb13bf4e" x="130.294387" y="271.801316" style="fill: #7f7f7f; stroke: #7f7f7f"/>
     <use xlink:href="#m5eeb13bf4e" x="144.409802" y="256.010193" style="fill: #7f7f7f; stroke: #7f7f7f"/>
     <use xlink:href="#m5eeb13bf4e" x="158.525217" y="253.104627" style="fill: #7f7f7f; stroke: #7f7f7f"/>
     <use xlink:href="#m5eeb13bf4e" x="172.640632" y="249.946402" style="fill: #7f7f7f; stroke: #7f7f7f"/>
     <use xlink:href="#m5eeb13bf4e" x="186.756047" y="246.882924" style="fill: #7f7f7f; stroke: #7f7f7f"/>
     <use xlink:href="#m5eeb13bf4e" x="200.871462" y="237.408251" style="fill: #7f7f7f; stroke: #7f7f7f"/>
     <use xlink:href="#m5eeb13bf4e" x="214.986877" y="232.670914" style="fill: #7f7f7f; stroke: #7f7f7f"/>
     <use xlink:href="#m5eeb13bf4e" x="229.102292" y="231.028637" style="fill: #7f7f7f; stroke: #7f7f7f"/>
    </g>
   </g>
   <g id="line2d_23">
    <path d="M 73.832727 295.488 
L 87.948142 263.905755 
L 102.063557 259.168418 
L 116.178972 252.851969 
L 130.294387 243.377295 
L 144.409802 237.060846 
L 158.525217 227.586172 
L 172.640632 224.427948 
L 186.756047 219.690611 
L 200.871462 203.899488 
L 214.986877 201.372909 
L 229.102292 188.74001 
L 243.217708 185.581786 
" clip-path="url(#p693d573b0a)" style="fill: none; stroke: #bcbd22; stroke-width: 1.5; stroke-linecap: square"/>
    <defs>
     <path id="mf4aab5cafe" d="M 0 3 
C 0.795609 3 1.55874 2.683901 2.12132 2.12132 
C 2.683901 1.55874 3 0.795609 3 0 
C 3 -0.795609 2.683901 -1.55874 2.12132 -2.12132 
C 1.55874 -2.683901 0.795609 -3 0 -3 
C -0.795609 -3 -1.55874 -2.683901 -2.12132 -2.12132 
C -2.683901 -1.55874 -3 -0.795609 -3 0 
C -3 0.795609 -2.683901 1.55874 -2.12132 2.12132 
C -1.55874 2.683901 -0.795609 3 0 3 
z
" style="stroke: #bcbd22"/>
    </defs>
    <g clip-path="url(#p693d573b0a)">
     <use xlink:href="#mf4aab5cafe" x="73.832727" y="295.488" style="fill: #bcbd22; stroke: #bcbd22"/>
     <use xlink:href="#mf4aab5cafe" x="87.948142" y="263.905755" style="fill: #bcbd22; stroke: #bcbd22"/>
     <use xlink:href="#mf4aab5cafe" x="102.063557" y="259.168418" style="fill: #bcbd22; stroke: #bcbd22"/>
     <use xlink:href="#mf4aab5cafe" x="116.178972" y="252.851969" style="fill: #bcbd22; stroke: #bcbd22"/>
     <use xlink:href="#mf4aab5cafe" x="130.294387" y="243.377295" style="fill: #bcbd22; stroke: #bcbd22"/>
     <use xlink:href="#mf4aab5cafe" x="144.409802" y="237.060846" style="fill: #bcbd22; stroke: #bcbd22"/>
     <use xlink:href="#mf4aab5cafe" x="158.525217" y="227.586172" style="fill: #bcbd22; stroke: #bcbd22"/>
     <use xlink:href="#mf4aab5cafe" x="172.640632" y="224.427948" style="fill: #bcbd22; stroke: #bcbd22"/>
     <use xlink:href="#mf4aab5cafe" x="186.756047" y="219.690611" style="fill: #bcbd22; stroke: #bcbd22"/>
     <use xlink:href="#mf4aab5cafe" x="200.871462" y="203.899488" style="fill: #bcbd22; stroke: #bcbd22"/>
     <use xlink:href="#mf4aab5cafe" x="214.986877" y="201.372909" style="fill: #bcbd22; stroke: #bcbd22"/>
     <use xlink:href="#mf4aab5cafe" x="229.102292" y="188.74001" style="fill: #bcbd22; stroke: #bcbd22"/>
     <use xlink:href="#mf4aab5cafe" x="243.217708" y="185.581786" style="fill: #bcbd22; stroke: #bcbd22"/>
    </g>
   </g>
   <g id="patch_3">
    <path d="M 57.6 307.584 
L 57.6 41.472 
" style="fill: none; stroke: #000000; stroke-width: 0.8; stroke-linejoin: miter; stroke-linecap: square"/>
   </g>
   <g id="patch_4">
    <path d="M 414.72 307.584 
L 414.72 41.472 
" style="fill: none; stroke: #000000; stroke-width: 0.8; stroke-linejoin: miter; stroke-linecap: square"/>
   </g>
   <g id="patch_5">
    <path d="M 57.6 307.584 
L 414.72 307.584 
" style="fill: none; stroke: #000000; stroke-width: 0.8; stroke-linejoin: miter; stroke-linecap: square"/>
   </g>
   <g id="patch_6">
    <path d="M 57.6 41.472 
L 414.72 41.472 
" style="fill: none; stroke: #000000; stroke-width: 0.8; stroke-linejoin: miter; stroke-linecap: square"/>
   </g>
   <g id="legend_1">
    <g id="patch_7">
     <path d="M 64.6 181.575125 
L 123.49375 181.575125 
Q 125.49375 181.575125 125.49375 179.575125 
L 125.49375 48.472 
Q 125.49375 46.472 123.49375 46.472 
L 64.6 46.472 
Q 62.6 46.472 62.6 48.472 
L 62.6 179.575125 
Q 62.6 181.575125 64.6 181.575125 
z
" style="fill: #ffffff; opacity: 0.8; stroke: #cccccc; stroke-linejoin: miter"/>
    </g>
    <g id="line2d_24">
     <path d="M 66.6 54.570438 
L 76.6 54.570438 
L 86.6 54.570438 
" style="fill: none; stroke: #1f77b4; stroke-width: 1.5; stroke-linecap: square"/>
     <g>
      <use xlink:href="#mb39b230263" x="76.6" y="54.570438" style="fill: #1f77b4; stroke: #1f77b4"/>
     </g>
    </g>
    <g id="text_17">
     <!-- turn1 -->
     <g transform="translate(94.6 58.070438) scale(0.1 -0.1)">
      <defs>
       <path id="DejaVuSans-75" d="M 544 1381 
L 544 3500 
L 1119 3500 
L 1119 1403 
Q 1119 906 1312 657 
Q 1506 409 1894 409 
Q 2359 409 2629 706 
Q 2900 1003 2900 1516 
L 2900 3500 
L 3475 3500 
L 3475 0 
L 2900 0 
L 2900 538 
Q 2691 219 2414 64 
Q 2138 -91 1772 -91 
Q 1169 -91 856 284 
Q 544 659 544 1381 
z
M 1991 3584 
L 1991 3584 
z
" transform="scale(0.015625)"/>
       <path id="DejaVuSans-6e" d="M 3513 2113 
L 3513 0 
L 2938 0 
L 2938 2094 
Q 2938 2591 2744 2837 
Q 2550 3084 2163 3084 
Q 1697 3084 1428 2787 
Q 1159 2491 1159 1978 
L 1159 0 
L 581 0 
L 581 3500 
L 1159 3500 
L 1159 2956 
Q 1366 3272 1645 3428 
Q 1925 3584 2291 3584 
Q 2894 3584 3203 3211 
Q 3513 2838 3513 2113 
z
" transform="scale(0.015625)"/>
      </defs>
      <use xlink:href="#DejaVuSans-74"/>
      <use xlink:href="#DejaVuSans-75" x="39.208984"/>
      <use xlink:href="#DejaVuSans-72" x="102.587891"/>
      <use xlink:href="#DejaVuSans-6e" x="141.951172"/>
      <use xlink:href="#DejaVuSans-31" x="205.330078"/>
     </g>
    </g>
    <g id="line2d_25">
     <path d="M 66.6 69.248563 
L 76.6 69.248563 
L 86.6 69.248563 
" style="fill: none; stroke: #ff7f0e; stroke-width: 1.5; stroke-linecap: square"/>
     <g>
      <use xlink:href="#me1e9f2cb14" x="76.6" y="69.248563" style="fill: #ff7f0e; stroke: #ff7f0e"/>
     </g>
    </g>
    <g id="text_18">
     <!-- turn2 -->
     <g transform="translate(94.6 72.748563) scale(0.1 -0.1)">
      <use xlink:href="#DejaVuSans-74"/>
      <use xlink:href="#DejaVuSans-75" x="39.208984"/>
      <use xlink:href="#DejaVuSans-72" x="102.587891"/>
      <use xlink:href="#DejaVuSans-6e" x="141.951172"/>
      <use xlink:href="#DejaVuSans-32" x="205.330078"/>
     </g>
    </g>
    <g id="line2d_26">
     <path d="M 66.6 83.926688 
L 76.6 83.926688 
L 86.6 83.926688 
" style="fill: none; stroke: #2ca02c; stroke-width: 1.5; stroke-linecap: square"/>
     <g>
      <use xlink:href="#m0f37308177" x="76.6" y="83.926688" style="fill: #2ca02c; stroke: #2ca02c"/>
     </g>
    </g>
    <g id="text_19">
     <!-- turn3 -->
     <g transform="translate(94.6 87.426688) scale(0.1 -0.1)">
      <use xlink:href="#DejaVuSans-74"/>
      <use xlink:href="#DejaVuSans-75" x="39.208984"/>
      <use xlink:href="#DejaVuSans-72" x="102.587891"/>
      <use xlink:href="#DejaVuSans-6e" x="141.951172"/>
      <use xlink:href="#DejaVuSans-33" x="205.330078"/>
     </g>
    </g>
    <g id="line2d_27">
     <path d="M 66.6 98.604813 
L 76.6 98.604813 
L 86.6 98.604813 
" style="fill: none; stroke: #d62728; stroke-width: 1.5; stroke-linecap: square"/>
     <g>
      <use xlink:href="#m2caefeecb5" x="76.6" y="98.604813" style="fill: #d62728; stroke: #d62728"/>
     </g>
    </g>
    <g id="text_20">
     <!-- turn4 -->
     <g transform="translate(94.6 102.104813) scale(0.1 -0.1)">
      <use xlink:href="#DejaVuSans-74"/>
      <use xlink:href="#DejaVuSans-75" x="39.208984"/>
      <use xlink:href="#DejaVuSans-72" x="102.587891"/>
      <use xlink:href="#DejaVuSans-6e" x="141.951172"/>
      <use xlink:href="#DejaVuSans-34" x="205.330078"/>
     </g>
    </g>
    <g id="line2d_28">
     <path d="M 66.6 113.282938 
L 76.6 113.282938 
L 86.6 113.282938 
" style="fill: none; stroke: #9467bd; stroke-width: 1.5; stroke-linecap: square"/>
     <g>
      <use xlink:href="#m94ddba06a8" x="76.6" y="113.282938" style="fill: #9467bd; stroke: #9467bd"/>
     </g>
    </g>
    <g id="text_21">
     <!-- turn5 -->
     <g transform="translate(94.6 116.782938) scale(0.1 -0.1)">
      <use xlink:href="#DejaVuSans-74"/>
      <use xlink:href="#DejaVuSans-75" x="39.208984"/>
      <use xlink:href="#DejaVuSans-72" x="102.587891"/>
      <use xlink:href="#DejaVuSans-6e" x="141.951172"/>
      <use xlink:href="#DejaVuSans-35" x="205.330078"/>
     </g>
    </g>
    <g id="line2d_29">
     <path d="M 66.6 127.961063 
L 76.6 127.961063 
L 86.6 127.961063 
" style="fill: none; stroke: #8c564b; stroke-width: 1.5; stroke-linecap: square"/>
     <g>
      <use xlink:href="#m6b52e30abf" x="76.6" y="127.961063" style="fill: #8c564b; stroke: #8c564b"/>
     </g>
    </g>
    <g id="text_22">
     <!-- turn6 -->
     <g transform="translate(94.6 131.461063) scale(0.1 -0.1)">
      <use xlink:href="#DejaVuSans-74"/>
      <use xlink:href="#DejaVuSans-75" x="39.208984"/>
      <use xlink:href="#DejaVuSans-72" x="102.587891"/>
      <use xlink:href="#DejaVuSans-6e" x="141.951172"/>
      <use xlink:href="#DejaVuSans-36" x="205.330078"/>
     </g>
    </g>
    <g id="line2d_30">
     <path d="M 66.6 142.639188 
L 76.6 142.639188 
L 86.6 142.639188 
" style="fill: none; stroke: #e377c2; stroke-width: 1.5; stroke-linecap: square"/>
     <g>
      <use xlink:href="#m63973620b5" x="76.6" y="142.639188" style="fill: #e377c2; stroke: #e377c2"/>
     </g>
    </g>
    <g id="text_23">
     <!-- turn7 -->
     <g transform="translate(94.6 146.139188) scale(0.1 -0.1)">
      <use xlink:href="#DejaVuSans-74"/>
      <use xlink:href="#DejaVuSans-75" x="39.208984"/>
      <use xlink:href="#DejaVuSans-72" x="102.587891"/>
      <use xlink:href="#DejaVuSans-6e" x="141.951172"/>
      <use xlink:href="#DejaVuSans-37" x="205.330078"/>
     </g>
    </g>
    <g id="line2d_31">
     <path d="M 66.6 157.317313 
L 76.6 157.317313 
L 86.6 157.317313 
" style="fill: none; stroke: #7f7f7f; stroke-width: 1.5; stroke-linecap: square"/>
     <g>
      <use xlink:href="#m5eeb13bf4e" x="76.6" y="157.317313" style="fill: #7f7f7f; stroke: #7f7f7f"/>
     </g>
    </g>
    <g id="text_24">
     <!-- turn8 -->
     <g transform="translate(94.6 160.817313) scale(0.1 -0.1)">
      <use xlink:href="#DejaVuSans-74"/>
      <use xlink:href="#DejaVuSans-75" x="39.208984"/>
      <use xlink:href="#DejaVuSans-72" x="102.587891"/>
      <use xlink:href="#DejaVuSans-6e" x="141.951172"/>
      <use xlink:href="#DejaVuSans-38" x="205.330078"/>
     </g>
    </g>
    <g id="line2d_32">
     <path d="M 66.6 171.995438 
L 76.6 171.995438 
L 86.6 171.995438 
" style="fill: none; stroke: #bcbd22; stroke-width: 1.5; stroke-linecap: square"/>
     <g>
      <use xlink:href="#mf4aab5cafe" x="76.6" y="171.995438" style="fill: #bcbd22; stroke: #bcbd22"/>
     </g>
    </g>
    <g id="text_25">
     <!-- turn9 -->
     <g transform="translate(94.6 175.495438) scale(0.1 -0.1)">
      <defs>
       <path id="DejaVuSans-39" d="M 703 97 
L 703 672 
Q 941 559 1184 500 
Q 1428 441 1663 441 
Q 2288 441 2617 861 
Q 2947 1281 2994 2138 
Q 2813 1869 2534 1725 
Q 2256 1581 1919 1581 
Q 1219 1581 811 2004 
Q 403 2428 403 3163 
Q 403 3881 828 4315 
Q 1253 4750 1959 4750 
Q 2769 4750 3195 4129 
Q 3622 3509 3622 2328 
Q 3622 1225 3098 567 
Q 2575 -91 1691 -91 
Q 1453 -91 1209 -44 
Q 966 3 703 97 
z
M 1959 2075 
Q 2384 2075 2632 2365 
Q 2881 2656 2881 3163 
Q 2881 3666 2632 3958 
Q 2384 4250 1959 4250 
Q 1534 4250 1286 3958 
Q 1038 3666 1038 3163 
Q 1038 2656 1286 2365 
Q 1534 2075 1959 2075 
z
" transform="scale(0.015625)"/>
      </defs>
      <use xlink:href="#DejaVuSans-74"/>
      <use xlink:href="#DejaVuSans-75" x="39.208984"/>
      <use xlink:href="#DejaVuSans-72" x="102.587891"/>
      <use xlink:href="#DejaVuSans-6e" x="141.951172"/>
      <use xlink:href="#DejaVuSans-39" x="205.330078"/>
     </g>
    </g>
   </g>
  </g>
 </g>
 <defs>
  <clipPath id="p693d573b0a">
   <rect x="57.6" y="41.472" width="357.12" height="266.112"/>
  </clipPath>
 </defs>
</svg>
